<?xml version="1.0" encoding="UTF-8" standalone="no"?>
<!-- Created with Inkscape (http://www.inkscape.org/) -->

<svg
   xmlns:dc="http://purl.org/dc/elements/1.1/"
   xmlns:cc="http://creativecommons.org/ns#"
   xmlns:rdf="http://www.w3.org/1999/02/22-rdf-syntax-ns#"
   xmlns:svg="http://www.w3.org/2000/svg"
   xmlns="http://www.w3.org/2000/svg"
   xmlns:sodipodi="http://sodipodi.sourceforge.net/DTD/sodipodi-0.dtd"
   xmlns:inkscape="http://www.inkscape.org/namespaces/inkscape"
   width="744.09448819"
   height="1052.3622047"
   id="svg3042"
   version="1.1"
   inkscape:version="0.48.1 r9760"
   sodipodi:docname="brain.svg">
  <defs
     id="defs3044" />
  <sodipodi:namedview
     id="base"
     pagecolor="#ffffff"
     bordercolor="#666666"
     borderopacity="1.0"
     inkscape:pageopacity="0.0"
     inkscape:pageshadow="2"
     inkscape:zoom="0.62701625"
     inkscape:cx="-146.09243"
     inkscape:cy="800.64906"
     inkscape:document-units="px"
     inkscape:current-layer="layer1"
     showgrid="true"
     inkscape:window-width="1134"
     inkscape:window-height="840"
     inkscape:window-x="20"
     inkscape:window-y="20"
     inkscape:window-maximized="0"
     inkscape:snap-bbox="true"
     inkscape:snap-bbox-edge-midpoints="true"
     inkscape:bbox-nodes="true"
     inkscape:bbox-paths="true"
     inkscape:snap-bbox-midpoints="true">
    <inkscape:grid
       type="xygrid"
       id="grid3159" />
  </sodipodi:namedview>
  <metadata
     id="metadata3047">
    <rdf:RDF>
      <cc:Work
         rdf:about="">
        <dc:format>image/svg+xml</dc:format>
        <dc:type
           rdf:resource="http://purl.org/dc/dcmitype/StillImage" />
        <dc:title />
      </cc:Work>
    </rdf:RDF>
  </metadata>
  <g
     inkscape:label="Layer 1"
     inkscape:groupmode="layer"
     id="layer1">
    <rect
       style="fill:none;fill-opacity:1;stroke:none"
       id="rect3161"
       width="300"
       height="300"
       x="-350"
       y="202.36218"
       inkscape:export-filename="/Users/trebor/active/trebor-org/src/main/webapp/image/influences.png"
       inkscape:export-xdpi="60"
       inkscape:export-ydpi="60" />
    <g
       id="g3143"
       style="fill:#ff0000"
       transform="matrix(-1.0564786,0,0,1.0564786,-607.61396,-269.10765)"
       inkscape:export-filename="/Users/trebor/active/trebor-org/src/main/webapp/image/influences.png"
       inkscape:export-xdpi="60"
       inkscape:export-ydpi="60">
      <g
         id="g3151"
         style="fill:#000000">
        <path
           style="fill:#000000;fill-opacity:1;stroke:none"
           d="m -348.96875,516.90625 c -1.44353,-10e-4 -3.06512,0.0186 -4.84375,0.0312 -8.8,0.0625 -17.32334,0.54506 -18.9375,1.0625 -3.35641,1.07595 -4.61751,3.31067 -1.875,3.3125 1.00833,6.7e-4 5.11966,2.70068 9.15625,6 4.03659,3.29933 7.97409,6 8.75,6 0.77591,0 1.40664,0.3375 1.40625,0.75 -3.8e-4,0.4125 -2.27237,0.80272 -5.0625,0.84375 -4.41034,0.0649 -4.79369,-0.0837 -2.90625,-1.09375 2.09778,-1.1227 1.97947,-1.33776 -3.1875,-5.875 -2.94105,-2.58259 -6.39981,-4.94429 -7.71875,-5.28125 -3.8761,-0.99026 -15.13622,1.56848 -21.28125,4.84375 -5.83857,3.11193 -7.69563,5.36687 -5.875,7.1875 0.56803,0.56803 1.03125,1.66157 1.03125,2.4375 0,0.93025 -0.59609,0.67204 -1.75,-0.75 -1.6873,-2.07938 -1.89202,-2.08917 -6.125,-0.59375 -5.91508,2.08967 -11.125,5.38422 -11.125,7.0625 0,1.48522 2.78266,2.09318 13,2.84375 3.56136,0.26161 6.61092,0.89526 6.78125,1.40625 0.17033,0.51099 1.33977,0.74569 2.625,0.5 2.82206,-0.53946 7.13192,1.54048 11.4375,5.5625 3.0847,2.88154 3.21513,2.93368 4.25,1 0.58808,-1.09883 1.31875,-1.775 1.59375,-1.5 0.275,0.275 -0.0159,1.42376 -0.625,2.5625 -0.92652,1.73122 -0.54045,2.94121 2.34375,7.34375 4.77148,7.28337 7.45661,10.02721 9.15625,9.375 0.79623,-0.30554 1.4375,-0.0656 1.4375,0.53125 0,0.61831 -1.07557,0.86605 -2.5,0.59375 -2.06455,-0.39467 -2.5,-0.0676 -2.5,1.78125 0,1.23138 -0.60885,2.73915 -1.375,3.375 -1.17808,0.97772 -1.07689,1.80914 0.65625,5.375 2.67736,5.50854 3.52429,17.41856 1.4375,20.1875 -1.33987,1.77787 -1.21303,2.28096 1.625,5.8125 1.71408,2.13294 4.27133,5.98377 5.65625,8.53125 1.59493,2.9338 3.41648,4.87663 5,5.3125 2.37106,0.65265 2.38395,0.68671 0.25,0.78125 -1.98486,0.0879 -2.26494,0.65348 -2.375,4.84375 l -0.125,4.75 -0.71875,-5 c -0.98206,-6.67779 -5.13887,-14.63021 -10.84375,-20.75 -3.49557,-3.7498 -4.14003,-4.85772 -2.5,-4.34375 2.69175,0.84359 4.3125,-1.6673 4.3125,-6.71875 0,-4.66587 -3.5271,-15.79371 -6,-18.9375 -2.58827,-3.29045 -2.56599,-4.56926 0.0312,-2.21875 1.50424,1.36132 2.31631,1.52744 3.15625,0.6875 1.65135,-1.65135 -1.37739,-8.90937 -6.78125,-16.25 -5.41042,-7.34953 -12.6064,-12.28888 -16.625,-11.40625 -1.51883,0.33359 -2.78125,0.22438 -2.78125,-0.25 0,-0.47439 -5.25411,-1.44185 -11.6875,-2.125 -11.45801,-1.21669 -11.73904,-1.19217 -13.75,0.90625 -1.45279,1.51598 -1.69709,2.29503 -0.8125,2.625 2.27901,0.8501 1.31098,2.33014 -1.125,1.71875 -4.51184,-1.1324 -14.625,5.86436 -14.625,10.125 0,2.37199 4.32369,4.83273 7.65625,4.34375 3.28854,-0.48252 6.20076,1.13826 8.375,4.65625 1.26731,2.05054 3.42028,3.84465 5.3125,4.4375 l 3.15625,0.96875 -3.1562,-0.2812 c -3.00046,-0.28418 -3.18394,-0.11065 -3.53125,3.53125 -0.30385,3.1862 0.11953,4.30064 2.5,6.5625 5.20758,4.94809 6.04944,7.65198 5.34375,17.59375 -0.53502,7.53739 -0.39335,9.27286 1,10.8125 1.78271,1.96988 5.83543,2.444 6.84375,0.8125 0.33992,-0.55 1.15746,-0.98624 1.8125,-0.96875 0.65504,0.0175 0.39871,0.6537 -0.59375,1.40625 -1.71239,1.29844 -1.67411,1.51339 0.75,3.9375 1.58851,1.58851 2.51606,3.60538 2.46875,5.34375 -0.0755,2.77346 -0.10037,2.75678 -1.3125,-0.59375 -1.32662,-3.66693 -4.9191,-7.125 -7.40625,-7.125 -1.9889,0 -5.21875,-2.87524 -5.21875,-4.65625 0,-0.74941 -1.93178,0.67159 -4.3125,3.15625 -2.38072,2.48466 -4.96822,4.49973 -5.75,4.5 -0.78178,2.7e-4 -3.35074,2.25027 -5.71875,5 -2.36802,2.74973 -4.84302,4.98705 -5.5,4.96875 -0.65699,-0.0183 -0.31875,-0.81626 0.78125,-1.78125 1.1,-0.96498 2.84847,-2.74423 3.875,-3.9375 1.84784,-2.148 1.82633,-2.19848 -1.90625,-5.71875 -2.07354,-1.9556 -3.47681,-3.83569 -3.125,-4.1875 0.35181,-0.35182 1.57112,0.54103 2.71875,2 3.3882,4.3074 8.28495,3.71988 13.40625,-1.625 9.12243,-9.5207 8.47317,-23.76404 -1.375,-30.28125 -4.4799,-2.96466 -5.16322,-3.91171 -2.09375,-2.9375 1.69685,0.53856 2,0.17221 2,-2.375 0,-6.96595 -4.04551,-12.125 -9.5,-12.125 -3.06667,0 -3.5,0.30952 -3.5,2.5 0,1.375 -0.40774,2.5 -0.90625,2.5 -0.49851,0 -0.65567,-0.86421 -0.375,-1.9375 0.3357,-1.28372 -0.42907,-2.81013 -2.21875,-4.46875 -2.26455,-2.09871 -3.06798,-2.34891 -4.84375,-1.4375 -2.43199,1.24822 -7.65625,5.91109 -7.65625,6.84375 0,0.34126 1.81203,1.42713 4.03125,2.40625 2.21923,0.97912 5.00329,3.08577 6.1875,4.6875 1.18421,1.60173 3.08468,2.96745 4.21875,3.03125 1.68735,0.0949 1.74458,0.18825 0.3125,0.5625 -0.9625,0.25152 -1.75,1.39789 -1.75,2.53125 0,1.13337 -0.51391,3.82478 -1.15625,5.96875 -0.89054,2.97235 -0.89054,4.17196 0,5.0625 0.64234,0.64234 1.1433,1.64125 1.125,2.21875 -0.0183,0.5775 -0.92759,-0.0494 -2.03125,-1.375 -1.52237,-1.82844 -2.27614,-2.13011 -3.15625,-1.25 -0.63804,0.63804 -1.64125,1.15898 -2.21875,1.15625 -0.5775,-0.003 0.19796,-1.01523 1.71875,-2.25 5.63097,-4.57196 5.23624,-12.73757 -0.84375,-17.375 -6.45114,-4.92052 -11.9877,-3.06238 -18.21875,6.125 -2.85336,4.20712 -3.08376,5.04124 -1.84375,6.28125 1.93194,1.93194 6.70577,0.79155 10.15625,-2.40625 1.47966,-1.3713 2.90609,-2.2814 3.15625,-2.03125 0.81716,0.81716 -3.99193,4.65167 -7.375,5.875 -2.43547,0.88067 -3.3125,1.80596 -3.3125,3.5 0,1.26451 -0.43601,2.28125 -0.96875,2.28125 -0.53273,0 -0.69945,-0.68576 -0.375,-1.53125 0.32444,-0.84548 -0.20026,-2.44036 -1.1875,-3.53125 -1.78168,-1.96874 -1.81237,-1.93764 -4.71875,0.8125 -2.96021,2.80111 -11.75,14.47534 -11.75,15.625 0,1.3207 5.77355,0.55426 9.3125,-1.25 3.8478,-1.96172 5.17443,-1.52532 1.78125,0.59375 -1.0616,0.66298 -2.13921,2.46818 -2.375,4 -0.4116,2.67397 -0.4601,2.69145 -1.1875,0.53125 -0.6112,-1.81474 -1.5064,-2.25 -4.625,-2.25 -3.6106,0 -4.02325,0.32543 -6.28125,4.78125 -2.5543,5.04076 -6.625,16.65218 -6.625,18.90625 0,0.73416 0.6174,1.3125 1.375,1.3125 0.7577,0 1.9111,0.65261 2.5625,1.4375 0.7828,0.94327 2.29865,1.25842 4.46875,0.90625 7.3837,-1.19822 13.64647,5.556 11.8125,12.78125 -0.54104,2.13154 -0.7396,3.875 -0.4375,3.875 0.3021,0 2.03558,-1.12825 3.875,-2.53125 1.83941,-1.40299 3.34375,-2.13974 3.34375,-1.625 0,1.12367 -4.74673,4.4649 -7.375,5.1875 -1.05779,0.2909 -3.77395,3.99951 -6.21875,8.5 -7.5438,13.8868 -7.66955,14.5329 -4.15625,21.5 1.7432,3.4568 2.9258,4.5962 5.25,5 1.9872,0.3452 2.584,0.787 1.75,1.3125 -0.6924,0.4364 -2.1549,0.50385 -3.25,0.15625 -1.734,-0.5503 -2,-0.1695 -2,2.9375 0,1.9621 -0.34165,3.5625 -0.78125,3.5625 -0.4396,0 -0.63255,-1.59245 -0.40625,-3.53125 0.255,-2.184 -0.3788,-5.36415 -1.6875,-8.40625 -1.1618,-2.7006 -2.125,-6.02145 -2.125,-7.34375 0,-1.5939 -0.8425,-2.77595 -2.5,-3.53125 -1.375,-0.6264 -2.5,-1.6131 -2.5,-2.1875 0,-0.5759 1.0985,-0.3148 2.4375,0.5625 2.2529,1.4762 2.4876,1.4367 3.375,-0.25 0.526,-1 2.8985,-5.4125 5.25,-9.8125 2.3516,-4.39999 4.86035,-9.125 5.59375,-10.5 2.98552,-5.59771 1.1661,-11.33588 -4.3125,-13.625 -4.4974,-1.87913 -6.60085,-1.14281 -8.09375,2.8125 -0.6616,1.75261 -1.4834,2.92288 -1.8125,2.59375 -0.3292,-0.32912 -0.0926,-1.51774 0.5,-2.625 1.4704,-2.74746 0.34565,-5.15625 -2.40625,-5.15625 -2.7809,0 -3.3457,1.69165 -4.1875,12.75 -0.5415,7.11409 -0.3669,8.5325 1.1875,10.25 0.9922,1.0964 1.2954,2 0.6875,2 -0.6079,0 -1.55505,-0.7875 -2.09375,-1.75 -0.8636,-1.5431 -1.0918,-1.39685 -2.0625,1.15625 -1.7844,4.69329 -2.33085,13.75395 -1.09375,18.59375 0.6327,2.475 1.22315,5.0625 1.28125,5.75 0.058,0.6875 0.5916,1.26455 1.1875,1.28125 0.5958,0.017 0.3426,0.4715 -0.5625,1 -1.9785,1.1552 -1.3449,4.85885 2.75,15.90625 2.6988,7.2811 6.96745,12.0625 10.78125,12.0625 1.5697,0 1.58335,-0.18135 0.15625,-2.21875 -0.8562,-1.2224 -1.51215,-3.3599 -1.46875,-4.75 0.063,-2.0261 0.359,-1.68075 1.5625,1.71875 4.1334,11.6755 19.73971,16.16715 32.84375,9.46875 1.65,-0.8435 5.77879,-1.5729 9.15625,-1.625 5.19989,-0.08 7.49879,-0.78325 14.96875,-4.59375 6.66657,-3.4007 9.31387,-5.3565 10.84375,-8 2.77976,-4.8032 2.62044,-13.4665 -0.3125,-18.4375 -2.68543,-4.5514 -2.72356,-5.81385 -0.0937,-2.65625 1.79429,2.1544 2.15742,2.2345 3.71875,0.875 0.95114,-0.8282 2.34365,-1.7073 3.09375,-1.9375 0.9047,-0.2775 1.41829,-2.2517 1.53125,-5.875 0.0937,-3.0042 0.54363,-6.36875 1,-7.46875 0.53625,-1.2925 -0.084,-0.9388 -1.75,1 -2.94061,3.4221 -3.49807,2.7205 -0.9375,-1.1875 1.80043,-2.7478 2.37727,-11.6167 1.0625,-16.3125 -1.1352,-4.05454 -4.47553,-7 -8,-7 -2.34024,0 -2.86357,-0.29268 -2.03125,-1.125 0.81559,-0.81559 1.95614,-0.80917 4.1875,-0.0312 2.72724,0.95073 3.0625,0.83117 3.0625,-0.84375 0,-1.03893 0.45828,-2.13395 1,-2.46875 0.60705,-0.37518 0.76748,0.50636 0.40625,2.3125 -0.38696,1.93483 -0.003,3.82517 1.15625,5.59375 1.11332,1.69915 1.91587,5.4054 2.21875,10.125 0.48761,7.59799 1.02518,8.5806 3.21875,5.9375 4.55484,-5.48819 14.96989,4.8436 15,14.875 0.004,1.3966 1.55134,0.42285 6.25,-3.90625 7.1999,-6.6336 7.73923,-7.46875 4.75,-7.46875 -1.20083,0 -3.78189,-1.5632 -5.71875,-3.5 -2.772,-2.772 -3.82121,-3.30675 -4.90625,-2.40625 -0.92326,0.7662 -1.375,0.8056 -1.375,0.0937 0,-0.5849 0.45,-1.3475 1,-1.6875 1.43513,-0.8869 1.26003,-8.77869 -0.25,-10.84375 -1.18846,-1.62531 -1.45261,-1.56643 -3.6875,0.8125 -1.3193,1.40429 -3.10213,2.5147 -3.96875,2.5 -1.03039,-0.017 -0.69733,-0.5713 1,-1.625 3.6301,-2.25353 5.11727,-5.00618 5.4375,-10.09375 0.40604,-6.4508 1.63506,-6.64692 1.375,-0.21875 -0.2341,5.7864 0.99243,9.22685 3.875,10.90625 1.53775,0.8959 1.53884,1.00435 0.0937,1.03125 -1.484,0.028 -1.77656,2.25905 -0.96875,7.21875 0.0603,0.3702 1.4952,2.0577 3.1875,3.75 2.20876,2.2088 4.00635,3.0625 6.40625,3.0625 2.83767,0 4.1897,-0.94501 8.9375,-6.25 3.07648,-3.4375 6.49319,-8.09078 7.59375,-10.34375 1.10057,-2.25291 3.09707,-4.57676 4.4375,-5.1875 1.34043,-0.61074 3.19406,-2.5949 4.125,-4.40625 2.60628,-5.07103 9.23938,-14.69415 14.5625,-21.125 2.6455,-3.19603 5.29163,-7.58353 5.875,-9.75 0.58337,-2.16647 1.31158,-3.9375 1.625,-3.9375 0.56974,0 -0.0893,3.41271 -1.25,6.4375 -0.47084,1.22701 -0.17365,1.45774 1.25,0.96875 1.02374,-0.35162 0.18385,0.77383 -1.875,2.53125 -4.57118,3.90193 -11.08802,12.26083 -16.71875,21.46875 -3.29999,5.39648 -3.91383,7.07802 -2.875,7.78125 1.05474,0.714 1.00475,0.84522 -0.1875,0.65625 -2.91713,-0.46236 -5.65788,1.23689 -7.21875,4.4375 -2.2298,4.57222 -8.32932,11.34735 -23.0625,25.65625 -14.05812,13.6533 -20.72466,22.4805 -20.71875,27.4375 0.009,7.8017 9.43361,14.9777 16.5625,12.625 1.9031,-0.6281 3.4375,-1.5551 3.4375,-2.0625 0,-0.5073 0.50766,-0.9375 1.125,-0.9375 1.79773,0 -1.17794,3.0712 -4.0625,4.1875 l -2.5625,1 4.21875,3.75 c 2.30696,2.062 6.35696,4.46285 9,5.34375 6.19853,2.066 17.27806,2.1576 24.84375,0.1875 7.17433,-1.8682 14.07699,-5.7622 14.90625,-8.375 0.52529,-1.655 1.0695,-1.7725 4.09375,-0.9375 3.95716,1.0927 12.82189,-0.76775 19.21875,-4.03125 9.83169,-5.0157 21.34117,-15.6091 25.3125,-23.3125 1.82942,-3.5486 2.62313,-9.8125 1.25,-9.8125 -2.5792,0 -20.10747,11.13085 -29.5,18.71875 -6.15618,4.9733 -7.58345,5.61035 -18.40625,8.34375 -13.33818,3.3686 -22.85635,7.32785 -24.96875,10.34375 -1.05677,1.5087 -1.46875,1.64605 -1.46875,0.53125 0,-0.8374 0.53282,-2.03285 1.15625,-2.65625 1.56628,-1.5663 -4.24729,-5.0311 -9.875,-5.875 -2.36218,-0.3543 -4.55263,-1.0409 -4.875,-1.5625 -0.62442,-1.0103 5.37749,-0.19115 9.34375,1.28125 1.77248,0.658 2.28362,0.45285 2.375,-0.90625 0.0963,-1.4319 0.21718,-1.38035 0.625,0.21875 0.27024,1.0597 1.41937,2.66805 2.5625,3.59375 1.96521,1.5913 2.3715,1.57195 7.375,-0.71875 2.91048,-1.3325 10.54042,-3.7515 16.96875,-5.375 6.42833,-1.6235 12.18472,-3.32215 12.78125,-3.78125 0.59652,-0.459 3.7625,-3.00375 7.0625,-5.65625 7.30854,-5.8745 14.7384,-10.67785 24,-15.53125 6.35273,-3.3291 7.17502,-4.1186 8.875,-8.5625 3.59587,-9.3999 4.19123,-13.97255 2.375,-17.78125 -1.86353,-3.9078 -4.42714,-5.0923 -9.25,-4.1875 -2.6472,0.4966 -4.30859,1.92985 -7.84375,6.84375 -5.88478,8.17989 -11.54079,13.49055 -20.375,19.09375 -3.98225,2.5257 -10.61975,7.55405 -14.75,11.15625 -4.13024,3.6021 -7.53125,6.18395 -7.53125,5.71875 0,-0.4653 2.52901,-3.04595 5.625,-5.71875 5.32539,-4.5976 5.52769,-4.9351 3.75,-6.3125 -1.77,-1.3714 -1.72111,-1.4348 0.625,-0.875 3.83028,0.914 15.16947,-6.3783 24.65625,-15.875 6.38676,-6.39349 8.99963,-9.9659 12.21875,-16.5625 3.42091,-7.01012 4.11713,-7.8947 4.125,-5.34375 0.005,1.68238 0.64471,3.93238 1.4375,5 1.83348,2.46904 4.12353,1.24532 6.71875,-3.59375 2.50896,-4.67821 2.74839,-28.27228 0.3125,-31.75 -1.82949,-2.61197 -0.79042,-3.03317 1.15625,-0.46875 1.23015,1.62051 1.3143,1.58352 1.34375,-0.5 0.0175,-1.2375 0.40227,-2.25 0.84375,-2.25 0.44149,0 0.48886,2.5875 0.0937,5.75 -0.39507,3.1625 -0.76609,9.9244 -0.8125,15.03125 -0.0828,9.11349 -0.0471,9.28307 2,8.1875 3.05412,-1.63452 3.39695,-0.5016 0.4375,1.4375 -2.46448,1.61479 -2.53125,1.93908 -2.53125,13.09375 0,8.24309 -0.45568,12.60885 -1.625,15.53125 -1.86557,4.6625 -1.52961,5.3047 2.59375,5.1875 6.73674,-0.1916 22.96813,-15.59107 28.3125,-26.875 2.74391,-5.79339 3.22224,-7.92328 3.1875,-14.0625 -0.0242,-4.27556 -0.5361,-7.75485 -1.25,-8.46875 -0.94538,-0.94537 -1.21875,-0.84563 -1.21875,0.4375 0,0.90254 -0.40857,1.87992 -0.90625,2.1875 -0.51161,0.31619 -0.66601,-1.1116 -0.375,-3.28125 0.33372,-2.48813 -0.0646,-4.94935 -1.125,-7 -1.72756,-3.34073 -1.14458,-4.30468 0.90625,-1.5 1.07747,1.47353 1.30497,1.36442 1.90625,-1.03125 1.35219,-5.38755 -4.10148,-17.30477 -6.71875,-14.6875 -1.85309,1.85309 -3.08076,1.16938 -1.34375,-0.75 2.08548,-2.30443 2.14454,-7.96319 0.125,-15.71875 -1.95941,-7.52468 -5.37138,-13.32682 -11.5625,-19.75 -4.61622,-4.78925 -4.96754,-4.95982 -6.71875,-3.375 -2.05573,1.86041 -6.1875,2.25348 -6.1875,0.59375 0,-0.58706 0.83603,-0.78859 1.84375,-0.46875 1.11955,0.35533 2.49901,-0.1686 3.5625,-1.34375 1.64234,-1.81476 1.66398,-2.12872 0.0625,-5.28125 -4.29291,-8.45043 -15.00952,-18.04247 -26.6875,-23.9375 -9.90618,-5.00062 -15.54169,-3.01719 -12.40625,4.34375 2.21245,5.19408 5.57575,7.5637 12.875,9.09375 5.31899,1.11495 7.21146,2.03431 9.3125,4.53125 2.84067,3.37595 4.4375,3.98589 4.4375,1.6875 0,-0.79254 0.45,-1.72258 1,-2.0625 1.51826,-0.93833 1.19518,1.86426 -0.46875,4.0625 -1.41688,1.87185 -1.60299,1.81089 -5.4375,-2.15625 -3.30825,-3.42268 -4.85419,-4.24182 -9.15625,-4.8125 -2.84404,-0.37728 -5.32877,-0.51497 -5.53125,-0.3125 -0.20248,0.20248 0.46761,2.00627 1.5,4.03125 1.03234,2.02499 1.55304,3.6875 1.125,3.6875 -0.76262,0 -4.03125,-6.09783 -4.03125,-7.53125 0,-0.40022 -1.575,-2.46301 -3.5,-4.59375 -1.925,-2.13075 -3.5,-4.35662 -3.5,-4.9375 0,-0.58087 -0.42634,-0.77273 -0.96875,-0.4375 -0.5424,0.33522 -5.0256,-1.01131 -9.9375,-3 -4.91191,-1.98868 -10.53178,-3.71092 -12.5,-3.8125 -1.96822,-0.10159 -3.56003,-0.525 -3.5625,-0.9375 -0.007,-1.20622 5.13572,-0.77978 9.46875,0.78125 2.2,0.79257 4.13327,1.46047 4.28125,1.46875 0.14798,0.008 -0.001,-1.2375 -0.3125,-2.75 -0.49414,-2.39965 -0.28982,-2.26949 1.5,0.96875 1.52519,2.75947 3.08626,4.01454 6.0625,4.90625 4.57806,1.37161 4.50228,1.41665 5.28125,-2.6875 0.54198,-2.85548 0.19441,-3.29978 -4.625,-6.1875 -2.8545,-1.71038 -8.3375,-4.16417 -12.1875,-5.4375 -5.44705,-1.80154 -8.05153,-2.21171 -18.15625,-2.21875 z m -36.21875,14.53125 c 4.08047,-0.12088 6.50756,1.45207 15,9.65625 5.98619,5.78299 6.54586,5.93408 15.90625,4.71875 3.93162,-0.51047 6.50652,-0.31548 9,0.71875 3.04665,1.26367 3.91577,1.26017 6.96875,0 4.17774,-1.72459 13.2706,-1.14668 17.59375,1.09375 3.81508,1.97713 10.72724,8.99849 13,13.21875 1.36891,2.54191 2.80219,3.57765 5.96875,4.375 2.29179,0.57708 6.58206,2.72131 9.53125,4.75 2.97655,2.0475 6.57398,3.6875 8.09375,3.6875 1.50581,0 2.50202,0.38542 2.21875,0.84375 -0.28326,0.45832 -1.33002,0.8125 -2.3125,0.8125 -1.58993,0 -1.47003,0.63548 1.0625,5.65625 1.56494,3.10251 2.87193,6.81501 2.875,8.25 0.01,4.66701 2.09705,10.28904 4.71875,12.71875 1.41082,1.30751 2.05902,2.375 1.46875,2.375 -0.59027,0 -2.43495,-1.66844 -4.125,-3.71875 -1.81836,-2.20599 -3.09375,-3.09839 -3.09375,-2.1875 0,2.37282 -3.81241,5.94373 -7.0625,6.59375 l -2.9375,0.5625 -0.15625,8.125 c -0.0871,4.46875 -0.0677,8.99647 0.0312,10.0625 0.099,1.06602 -0.0641,1.68585 -0.375,1.375 -0.68558,-0.68558 -8.42676,7.05545 -8.59375,8.59375 -0.0651,0.59997 -0.0651,1.43125 0,1.84375 0.0651,0.4125 -0.3016,0.75 -0.8125,0.75 -0.5109,0 -0.8484,-1.57746 -0.75,-3.5 0.12474,-2.43716 0.65139,-3.49687 1.75,-3.5 2.27003,-0.006 5.80271,-4.10572 6.9375,-8.0625 0.53687,-1.87194 0.96875,-6.42822 0.96875,-10.125 0,-5.59316 -0.31635,-6.89911 -1.90625,-7.75 -1.05085,-0.56239 -2.86849,-2.59929 -4.0625,-4.53125 -1.68016,-2.71855 -2.83508,-3.53125 -5.09375,-3.53125 -1.60514,0 -2.9375,-0.35775 -2.9375,-0.8125 0,-0.45474 1.33063,-0.64209 2.9375,-0.40625 2.44933,0.35949 3.17672,-0.0661 4.5,-2.625 0.86813,-1.67878 1.5625,-3.74144 1.5625,-4.59375 0,-0.85231 0.50668,-1.5625 1.09375,-1.5625 1.17531,0 0.48288,2.88714 -1.6875,7.15625 -1.20024,2.36088 -1.10783,3.00263 0.875,5.90625 3.19516,4.67894 5.58164,5.86126 9.46875,4.78125 9.55991,-2.65616 7.23999,-21.92619 -3.71875,-30.96875 -3.0327,-2.50243 -13.00132,-7.13305 -13.78125,-6.40625 -0.14472,0.13487 0.44807,1.9311 1.3125,4 0.86444,2.06889 1.32552,3.98698 1.03125,4.28125 -0.29427,0.29428 -0.81403,-0.30253 -1.15625,-1.34375 -0.34222,-1.04122 -1.94729,-4.68668 -3.5625,-8.09375 -6.3716,-13.44006 -17.04962,-19.92021 -28.5625,-17.34375 l -5.34375,1.1875 2.53125,3 c 4.12837,4.9063 2.84171,5.25356 -1.75,0.46875 -2.85812,-2.97831 -5.42896,-4.67425 -7.84375,-5.125 -4.33985,-0.81007 -11.90625,1.06361 -11.90625,2.9375 0,2.52887 5.05222,18.71577 7.0625,22.65625 l 2,3.90625 10.21875,0.0312 c 5.62633,0.008 10.89213,0.4343 11.6875,0.9375 2.32472,1.47078 4.87111,-0.62907 6.03125,-4.9375 0.58433,-2.17004 0.78777,-5.10439 0.4375,-6.5 -0.39492,-1.57347 -0.21857,-2.53125 0.46875,-2.53125 0.60963,0 1.09375,0.675 1.09375,1.5 0,0.825 0.61734,1.5 1.375,1.5 0.75765,0 1.94031,0.675 2.625,1.5 0.7516,0.90562 0.84611,1.5 0.21875,1.5 -0.57151,0 -1.22171,-0.50887 -1.4375,-1.15625 -0.6778,-2.03338 -2.52762,0.0137 -3.1875,3.53125 -0.34811,1.85556 -1.51447,4.14825 -2.59375,5.125 -1.93954,1.75525 -1.92974,1.82381 0.96875,5.125 2.88589,3.28685 3.38101,4.93358 4.46875,14.875 0.35155,3.21306 0.2452,4.48456 -0.34375,3.5625 -0.50408,-0.78918 -1.24361,-4.16418 -1.625,-7.5 -0.92642,-8.10275 -2.56949,-10.92966 -7.75,-13.4375 -3.37679,-1.63468 -6.24921,-2.125 -12.90625,-2.125 -5.63094,0 -8.91322,0.4279 -9.59375,1.25 -0.56911,0.6875 -1.52135,3.97861 -2.125,7.3125 -1.34452,7.42561 -0.1485,14.83396 3.4375,21.25 2.94595,5.27088 2.53107,6.97484 -0.5,2.0625 -4.89737,-7.93697 -6.23235,-20.92421 -3.03125,-29.34375 0.7144,-1.87903 0.37478,-3.69944 -1.46875,-7.75 -1.32332,-2.90756 -3.5565,-9.33125 -4.96875,-14.28125 -1.45987,-5.11693 -3.3041,-9.43145 -4.25,-10 -0.91504,-0.55 -4.94344,-4.00793 -8.96875,-7.6875 -5.39619,-4.9327 -8.42512,-6.9225 -11.5625,-7.625 l -4.28125,-0.96875 3.625,-0.0937 z m -27.65625,23.15625 c 0.0521,-0.0137 0.11402,-0.006 0.15625,0 0.28153,0.0433 0.375,0.54757 0.375,1.5625 0,1.235 1.06946,3.31946 2.375,4.625 3.27514,3.27513 12.50397,7.79793 14.71875,7.21875 1.52536,-0.39889 1.74218,-0.0234 1.28125,2.28125 -0.5147,2.5735 1.56009,8.27745 3.375,9.28125 0.42407,0.23455 0.23573,0.30638 -0.40625,0.15625 -1.25635,-0.2938 -2.3338,1.74391 -2.34375,4.4375 -0.003,0.91751 -0.62581,2.84547 -1.375,4.28125 -1.1502,2.20429 -1.12394,3.09586 0.0312,5.84375 0.75258,1.78987 1.34375,4.71689 1.34375,6.46875 0,1.75185 0.44531,3.60156 0.96875,4.125 0.52345,0.52345 2.21095,4.53845 3.75,8.9375 2.87098,8.20607 4.0575,9.38717 5.78125,5.65625 0.54292,-1.17511 1.34232,-2.15625 1.78125,-2.15625 0.43893,0 0.30069,0.94799 -0.3125,2.09375 -0.87081,1.62712 -0.77325,2.44666 0.40625,3.75 2.28645,2.5265 3.8314,7.30948 3.1875,9.875 -0.88319,3.5189 -2.19267,2.69803 -1.75,-1.09375 0.52195,-4.47093 -2.339,-10.23693 -4.28125,-8.625 -1.66022,1.37786 -3.66485,-1.36418 -5.46875,-7.5 -2.68026,-9.11672 -4.16086,-11.5 -7.1875,-11.5 -1.56647,0 -2.875,-0.47543 -2.875,-1.0625 0,-0.61319 0.87947,-0.80306 2.03125,-0.4375 1.31992,0.41893 2.17554,0.13342 2.5625,-0.875 0.74816,-1.94967 -2.21728,-11.07299 -4.125,-12.65625 -0.79486,-0.65968 -1.46875,-1.6821 -1.46875,-2.25 0,-0.5679 0.91399,-0.20158 2,0.78125 1.90991,1.72844 1.98097,1.69523 2.875,-0.65625 1.5067,-3.96293 1.61526,-9.07694 0.28125,-13.34375 -1.13399,-3.62706 -1.95422,-4.34549 -8.9375,-7.75 -4.23572,-2.06501 -9.06875,-3.74409 -10.71875,-3.75 -1.65,-0.006 -3.675,-0.48186 -4.5,-1.03125 -1.05343,-0.70149 -0.23471,-0.79461 2.75,-0.34375 4.5399,0.6858 4.86201,0.40599 3.15625,-2.78125 -0.79019,-1.47648 -0.79019,-2.36606 0,-3.15625 0.22224,-0.22224 0.40605,-0.3651 0.5625,-0.40625 z m 135,10.71875 c 1.45559,0 3.29354,2.29008 8.84375,10.9375 3.36599,5.24433 4.25497,4.79352 3.875,-1.9375 -0.18635,-3.30111 0.0241,-6 0.5,-6 0.47589,0 0.70247,1.75185 0.5,3.875 -0.23709,2.48611 0.77318,7.38077 2.84375,13.75 3.61966,11.13431 4.90987,22.71462 3.03125,27.25 -0.92891,2.24259 -0.9336,5.17594 -0.0312,12.9375 1.0044,8.63953 0.92478,11.22483 -0.53125,18.5625 -0.93036,4.68854 -1.3914,8.9797 -1.03125,9.5625 0.36018,0.5827 0.17621,1.0625 -0.40625,1.0625 -0.58246,0 -1.0625,-0.675 -1.0625,-1.5 0,-1.8082 -1.14804,-1.91445 -2.78125,-0.28125 -0.93333,0.9333 -1.21875,0.9333 -1.21875,0 0,-0.66 0.48561,-1.21875 1.0625,-1.21875 0.57689,0 1.90772,-1.9125 2.96875,-4.25 2.03667,-4.48688 2.62232,-15.82449 1.34375,-26.46875 -0.60251,-5.01588 -0.7466,-5.2092 -3.25,-4.65625 -2.4622,0.54384 -2.41809,0.45838 0.59375,-1.46875 5.25213,-3.3606 5.51137,-9.13295 1.15625,-25.40625 -1.70103,-6.35606 -2.55204,-7.96262 -4.71875,-9 -1.4526,-0.69548 -3.86196,-3.50668 -5.34375,-6.25 -1.48179,-2.74332 -3.87612,-6.0125 -5.3125,-7.25 -1.85256,-1.59605 -2.14158,-2.25 -1.03125,-2.25 z m -28.59375,44 c 0.11994,0 -0.0691,0.5 -0.4375,1.5 -0.40529,1.1 -1.06281,5.44229 -1.46875,9.65625 -0.87251,9.05736 -2.13446,13.31871 -6.25,21.15625 -3.24651,6.18259 -11.38575,14.327 -15.3125,15.3125 -1.38102,0.3467 -4.22903,3.21081 -6.84375,6.875 -2.46447,3.4536 -6.76374,8.75315 -9.53125,11.78125 -3.19861,3.4998 -5.03125,6.39845 -5.03125,7.96875 0,1.3586 -1.125,4.13005 -2.5,6.15625 -1.375,2.0261 -2.52995,4.69315 -2.59375,5.90625 -0.0776,1.4762 -0.27344,1.6453 -0.5625,0.5625 -0.39001,-1.461 -0.78515,-1.4368 -4.09375,0.25 -2.01496,1.0273 -4.90901,1.875 -6.4375,1.875 -2.01304,0 -3.94584,1.27995 -7.03125,4.59375 -4.30954,4.6285 -8.59308,7.49285 -10.96875,7.34375 -0.71481,-0.045 0.0375,-0.6996 1.6875,-1.4375 1.65,-0.7378 5.23942,-3.61395 7.96875,-6.40625 3.02139,-3.0911 5.83432,-5.09375 7.1875,-5.09375 5.32482,0 11.98573,-4.5373 14.9375,-10.1875 2.01504,-3.857 1.76746,-5.7215 -0.9375,-6.75 -2.74166,-1.0423 -3.89114,-3.3188 -2.90625,-5.8125 0.54962,-1.3916 0.79933,-1.13975 1.21875,1.15625 0.31625,1.7311 1.4035,3.18245 2.6875,3.65625 1.83907,0.6788 3.09988,-0.3451 8.875,-7.375 3.69865,-4.5023 8.51979,-11.1171 10.71875,-14.6875 2.63638,-4.2806 3.76823,-5.5278 3.34375,-3.6875 -0.64159,2.7815 -0.63424,2.7717 2.1875,1.3125 4.0666,-2.1029 10.69371,-9.62329 13.6875,-15.53125 5.0593,-9.98405 6.7273,-23.74198 3.375,-27.78125 -0.7251,-0.87369 -0.72983,-1.3125 -0.0312,-1.3125 0.57151,0 1.24228,0.5625 1.5,1.25 0.32697,0.87222 0.97256,0.64555 2.15625,-0.75 0.8482,-1 1.28631,-1.5 1.40625,-1.5 z m -149.9375,1.125 c 0.3897,-0.24638 0.51613,2.59873 0.28125,6.65625 -0.454,7.84256 -0.42719,7.90928 3.84375,14.8125 2.35697,3.80962 4.96295,8.30854 5.78125,10.03125 l 1.46875,3.15625 5.09375,-2.34375 c 2.80228,-1.29112 6.10625,-3.51274 7.34375,-4.9375 1.36295,-1.5692 2.25,-2.03603 2.25,-1.1875 0,1.98196 -2.83761,4.29996 -8.09375,6.625 -2.4891,1.10105 -5.33759,2.91947 -6.34375,4.03125 -1.75597,1.94033 -1.77605,2.18882 -0.0937,6.59375 2.84602,7.4522 13.37051,13.52585 20.84375,12.03125 2.48666,-0.4974 2.76961,-0.3535 1.75,0.875 -0.68354,0.8236 -0.9399,2.446 -0.5625,3.75 0.63735,2.2022 0.579,2.1675 -1.65625,-0.375 -1.34953,-1.535 -3.85097,-2.894 -5.9375,-3.25 -5.43391,-0.9271 -12.49703,-6.075 -14.59375,-10.625 -0.99254,-2.1539 -2.0375,-3.8868 -2.3125,-3.875 -1.16591,0.05 -9.05245,10.90885 -11.5625,15.90625 l -2.75,5.40625 1.65625,6.21875 c 0.91018,3.4158 1.67542,8.1778 1.6875,10.5625 0.0254,5.0179 2.94786,12.1313 5.625,13.6875 1.01471,0.5898 1.29173,1.07705 0.59375,1.09375 -0.81266,0.019 -1.07969,0.84045 -0.71875,2.28125 0.31853,1.2715 -0.0904,3.1198 -0.9375,4.25 -1.40733,1.8778 -1.45438,1.78915 -0.9375,-1.53125 0.4047,-2.5997 -0.18932,-5.14395 -2.25,-9.65625 -2.44037,-5.3437 -3.04696,-6.01755 -4.65625,-5.15625 -1.01668,0.5441 -2.35456,0.79845 -2.96875,0.59375 -0.61418,-0.2048 0.37809,-0.96925 2.1875,-1.71875 3.27809,-1.3578 3.28908,-1.39675 2.65625,-6.78125 -0.34931,-2.972 -1.29433,-6.9617 -2.09375,-8.875 -1.2929,-3.0943 -1.27327,-3.92255 0.1875,-7.65625 1.92968,-4.9322 6.31167,-11.6097 11.125,-16.9375 5.17485,-5.72795 4.89065,-9.41549 -1.46875,-19.3125 -3.2675,-5.08515 -5.94319,-8.16616 -7.46875,-8.59375 -5.08422,-1.42502 -13.43953,-0.88144 -17.375,1.125 -4.4177,2.25226 -5.92755,1.9829 -2.28125,-0.40625 1.8887,-1.23753 2.31315,-2.24704 1.96875,-4.59375 -0.2435,-1.65905 0.0299,-3 0.59375,-3 0.5609,0 0.7859,0.90668 0.5,2 -0.6613,2.52898 0.28131,2.83117 10.4375,3.21875 l 8.25,0.3125 0.0312,-6.53125 c 0.008,-3.57907 0.39167,-7.0686 0.84375,-7.78125 0.0283,-0.0445 0.0365,-0.0774 0.0625,-0.0937 z m 11.5625,61.75 c 0.50594,-0.21898 1.55958,1.03837 3.75,4.21875 2.06189,2.9938 3.75,6.0047 3.75,6.6875 0,1.655 1.87841,1.5273 5.40625,-0.3125 1.59433,-0.8314 3.15147,-1.25485 3.4375,-0.96875 0.28603,0.286 -1.36899,1.2886 -3.65625,2.25 l -4.15625,1.75 0,6.6875 c -0.006,3.68 0.41875,6.9726 0.96875,7.3125 0.55,0.3399 0.98624,1.1575 0.96875,1.8125 -0.0175,0.6551 -0.60798,0.4071 -1.34375,-0.5625 -1.25923,-1.6592 -1.45214,-1.6299 -2.9375,0.5 -0.86789,1.2446 -1.59615,1.8861 -1.625,1.4375 -0.0288,-0.4487 0.42907,-1.6832 1,-2.75 0.57093,-1.0668 1.17433,-4.7529 1.34375,-8.1875 0.31771,-6.4408 -1.12196,-11.68495 -4.09375,-14.96875 -1.51699,-1.6763 -1.75234,-1.6784 -3.46875,-0.125 -1.83162,1.6576 -2.65358,0.618 -0.9375,-1.1875 0.49662,-0.5225 1.05851,-1.84225 1.25,-2.90625 0.0678,-0.37677 0.1751,-0.61451 0.34375,-0.6875 z m -19.0625,4.15625 c 0.58238,0.018 0.19262,0.6925 -0.875,1.5 -1.06762,0.8075 -2.41762,1.455 -3,1.4375 -0.58238,-0.017 -0.19262,-0.6925 0.875,-1.5 1.06762,-0.8075 2.41762,-1.455 3,-1.4375 z"
           id="path3110"
           inkscape:connector-curvature="0" />
        <path
           style="fill:#000000;fill-opacity:1;stroke:none"
           d="m -383.875,517.59375 c -5.42406,-0.0159 -16.16822,2.25349 -23.9375,5.1875 l -6,2.25 3.25,0.71875 c 1.7812,0.39554 3.53472,1.21134 3.90625,1.8125 0.41822,0.6767 0.12068,0.88935 -0.8125,0.53125 -10.90973,-4.18645 -33.71641,2.06689 -40.75,11.1875 l -2.53125,3.3125 3.125,-0.6875 c 8.31245,-1.82572 18.3125,0.0476 18.3125,3.4375 0,1.45699 1.58624,1.17223 3,-0.53125 0.68469,-0.825 1.66791,-1.5 2.1875,-1.5 0.51959,0 2.40569,-1.50199 4.15625,-3.34375 1.81196,-1.90634 5.71242,-4.28582 9.0625,-5.53125 3.23657,-1.20324 6.71053,-3.27228 7.75,-4.59375 2.38397,-3.03072 10.6253,-6.93161 18.15625,-8.59375 7.02374,-1.55019 7.97114,-2.59085 3.125,-3.5 -0.53342,-0.10007 -1.22513,-0.15397 -2,-0.15625 z"
           id="path3108"
           inkscape:connector-curvature="0" />
        <path
           style="fill:#000000;fill-opacity:1;stroke:none"
           d="m -437.625,542.34375 c -1.06413,0.0237 -2.40822,0.1178 -4.15625,0.25 -7.10353,0.53724 -11.13646,1.96806 -16.78125,5.9375 -3.15325,2.21738 -2.66286,4.20756 0.875,3.53125 1.31053,-0.25052 2.375,-0.0144 2.375,0.53125 0,0.57508 -1.44392,0.73483 -3.46875,0.40625 -6.34023,-1.02888 -21.53125,8.12508 -21.53125,12.96875 0,1.95034 2.71344,1.68817 7.75,-0.75 2.40235,-1.16296 4.62256,-1.87744 4.9375,-1.5625 0.31495,0.31495 -1.30903,1.33584 -3.59375,2.25 -3.25342,1.30177 -4.01705,2.03659 -3.5625,3.46875 0.54476,1.7164 0.38848,1.73787 -2.46875,0.3125 -3.9759,-1.98344 -6.24015,-1.13824 -10.53125,3.875 -3.9747,4.64354 -4.75735,7.47436 -1.59375,5.78125 1.0638,-0.56935 2.5263,-0.99306 3.25,-0.96875 0.7236,0.0243 -0.2625,0.88447 -2.1875,1.90625 -1.925,1.02179 -4.42895,3.13546 -5.59375,4.71875 -3.1244,4.24696 -6.59055,11.3125 -5.53125,11.3125 0.5059,0 3.3052,-1.59161 6.1875,-3.53125 2.8822,-1.93964 5.42565,-3.32431 5.65625,-3.09375 0.4447,0.44468 -5.09005,4.52641 -10.34375,7.625 -2.9466,1.73783 -8.0756,10.40961 -9.875,16.75 -0.5989,2.11029 -0.4524,2.19117 2.1875,1.1875 1.5487,-0.58883 3.62685,-1.78124 4.59375,-2.65625 0.9669,-0.87501 1.98065,-1.36309 2.28125,-1.0625 0.7324,0.73245 -4.47985,4.78125 -6.15625,4.78125 -1.7747,0 -6.10895,4.67901 -8.34375,9 -2.6872,5.19562 -3.4034,9.73137 -2.0625,12.96875 0.9528,2.30017 0.87635,3.39466 -0.40625,5.875 -1.8017,3.48414 -2.0676,11.01645 -0.5625,16.15625 0.5626,1.9214 1.50845,8.225 2.09375,14 1.6521,16.3018 5.97455,27.24795 12.28125,31.09375 4.948,3.0172 5.78245,2.49455 3.71875,-2.34375 -0.997,-2.3375 -2.39035,-6.725 -3.09375,-9.75 -0.7034,-3.025 -1.9722,-6.2875 -2.8125,-7.25 -0.8403,-0.9625 -1.0269,-1.75 -0.4375,-1.75 0.5894,0 1.2544,0.5625 1.5,1.25 1.0666,2.9865 1.7784,-0.42755 0.8125,-3.90625 -1.6225,-5.8432 -1.2946,-14.47981 0.8125,-21.25 1.0424,-3.349 1.5223,-6.09375 1.0625,-6.09375 -0.4599,0 -1.12885,0.45 -1.46875,1 -0.3399,0.55 -1.2903,1 -2.125,1 -0.975,0 -0.47645,-0.88455 1.40625,-2.46875 2.4153,-2.0323 3.0576,-3.48325 3.5625,-8.25 0.337,-3.18118 0.895,-7.21661 1.25,-8.96875 0.5814,-2.86967 0.4398,-3.11593 -1.4375,-2.625 -1.1462,0.29974 -3.26705,1.65464 -4.71875,3 -1.4516,1.34535 -2.88125,2.2125 -3.15625,1.9375 -0.275,-0.275 0.8013,-1.7337 2.375,-3.21875 l 2.84375,-2.6875 -3.75,0.59375 c -2.0795,0.32266 -3.75,0.14468 -3.75,-0.375 0,-0.51542 0.68895,-0.9375 1.53125,-0.9375 0.8422,0 1.8084,-0.675 2.125,-1.5 0.3166,-0.825 0.9636,-1.5 1.4375,-1.5 0.4739,0 0.6106,0.62935 0.3125,1.40625 -0.6022,1.56927 1.8242,2.39655 5.25,1.78125 1.6081,-0.28882 2.4633,-1.53359 3.3125,-4.90625 0.6263,-2.48719 2.46345,-7.46714 4.09375,-11.0625 1.6302,-3.59537 2.76395,-6.70474 2.53125,-6.9375 -0.2328,-0.23276 -1.3529,0.0736 -2.5,0.6875 -1.3269,0.71016 -2.09375,0.73421 -2.09375,0.0937 0,-0.55363 1.32045,-1.35302 2.90625,-1.78125 2.0253,-0.54689 4.23055,-2.78993 7.46875,-7.53125 l 4.625,-6.75 -2.75,-0.0937 c -2.2669,-0.083 -2.04525,-0.2665 1.21875,-1.03125 2.1724,-0.509 4.75867,-1.66536 5.75,-2.5625 1.54675,-1.3998 6.78125,-9.84736 6.78125,-10.9375 0,-1.12904 -5.60188,-0.12544 -7.15625,1.28125 -1.00583,0.91024 -1.84375,1.16528 -1.84375,0.5625 0,-0.60279 0.45001,-1.37883 1,-1.71875 0.55,-0.33992 1.0612,-1.60746 1.125,-2.8125 0.0847,-1.59965 0.23687,-1.73481 0.5625,-0.5 0.83459,3.16472 6.35846,2.6841 10.8125,-0.9375 8.06953,-6.56138 8.19735,-6.68748 6.25,-7.0625 -0.95619,-0.18415 -1.75,-0.76577 -1.75,-1.3125 0,-0.54674 0.86945,-0.73532 1.90625,-0.40625 1.31647,0.41783 2.63091,-0.30226 4.375,-2.375 1.7503,-2.08012 3.11098,-2.80891 4.53125,-2.4375 1.58464,0.41439 2.39401,-0.26746 3.75,-3.125 1.17973,-2.4861 3.3695,-4.56867 6.84375,-6.53125 8.77474,-4.95679 8.33855,-4.34895 5.21875,-7.46875 -2.0159,-2.0159 -2.74511,-2.5711 -5.9375,-2.5 z m -74.125,93.375 c 0.27041,-0.0441 0.4375,0.0648 0.4375,0.34375 0,0.55 -0.675,1.56531 -1.5,2.25 -0.8367,0.69443 -1.5,0.80783 -1.5,0.25 0,-0.55 0.675,-1.56531 1.5,-2.25 0.41835,-0.34722 0.79209,-0.5496 1.0625,-0.59375 z"
           id="path3104"
           inkscape:connector-curvature="0" />
        <path
           style="opacity:0.5;fill:#000000;fill-opacity:1;stroke:none"
           d="m -277.34375,646.8125 -1.90625,2.5 c -1.37877,1.79444 -1.60424,2.8336 -0.84375,3.75 1.84833,2.2271 2.80411,1.35431 2.78125,-2.5 l -0.0312,-3.75 z"
           id="path3092"
           inkscape:connector-curvature="0" />
        <path
           style="opacity:0.5;fill:#000000;fill-opacity:1;stroke:none"
           d="m -288.6875,648.25 c -0.34933,-0.0494 -0.625,0.10648 -0.625,0.5 0,0.23002 -0.24406,1.0764 -0.5625,1.90625 -0.43043,1.12166 -0.0566,1.39071 1.4375,1 1.21029,-0.3165 1.79261,-1.09354 1.46875,-1.9375 -0.30046,-0.78299 -1.13654,-1.38637 -1.71875,-1.46875 z"
           id="path3090"
           inkscape:connector-curvature="0" />
        <path
           style="fill:#000000;fill-opacity:1;stroke:none"
           d="m -400.96875,665.71875 c -2.70875,0.13894 -5.21977,2.43255 -6.4375,6.84375 -0.95394,3.4557 -0.87666,5.3745 0.375,10.25 1.67336,6.5181 1.49161,8.2904 -0.40625,4.125 -1.36868,-3.0039 -3.02266,-3.32105 -5.3125,-1.03125 -1.26566,1.2657 -1.47194,2.8386 -0.96875,7.75 0.60909,5.9451 0.28292,7.472 -3.40625,15.0625 -0.81521,1.6773 5.11814,-0.51845 9.40625,-3.46875 2.35388,-1.6195 4.58315,-3.85225 4.9375,-4.96875 0.35436,-1.1164 3.33803,-5.4494 6.65625,-9.625 6.74341,-8.4859 7.02005,-10.1854 2.84375,-18.8125 -2.05417,-4.24335 -4.97875,-6.26394 -7.6875,-6.125 z"
           id="path3088"
           inkscape:connector-curvature="0" />
      </g>
    </g>
    <path
       style="fill:#ffff00;stroke:#ff0000"
       d="m -759.67597,749.15811 c -5.7907,-1.4614 -13.22312,-5.567 -15.95445,-8.813 -1.35798,-1.6138 -3.83882,-3.2351 -5.513,-3.6028 -3.48906,-0.7664 -10.87634,-6.7188 -11.74846,-9.4666 -0.57029,-1.7969 -0.69265,-1.7961 -4.27001,0.028 -2.02558,1.0327 -4.82523,1.883 -6.22144,1.8896 -1.39621,0.01 -4.54325,1.1579 -6.99343,2.5584 -6.33185,3.6192 -15.24496,6.4296 -20.39146,6.4296 -2.42518,0 -6.06396,0.6913 -8.08617,1.5362 -10.15978,4.2451 -20.8525,3.7004 -28.19619,-1.4362 -2.2708,-1.5883 -5.4806,-3.1847 -7.1328,-3.5476 -1.6522,-0.3629 -4.7846,-2.184 -6.9609,-4.0468 -2.1764,-1.8629 -5.2351,-3.7078 -6.7972,-4.0999 -8.2089,-2.0603 -15.6345,-15.4611 -17.512,-31.6034 -0.5951,-5.1163 -1.7887,-13.0144 -2.6525,-17.5515 -1.0207,-5.36109 -1.3256,-10.08749 -0.8709,-13.49996 0.3849,-2.88796 0.838,-8.62584 1.0071,-12.75084 0.336,-8.19689 1.4529,-11.87566 5.0292,-16.56433 1.2892,-1.69025 2.8687,-5.06725 3.51,-7.50443 0.6413,-2.43718 2.6517,-7.1612 4.4676,-10.49782 1.8159,-3.33662 3.6071,-7.45727 3.9804,-9.15701 0.3733,-1.69973 2.2108,-5.2452 4.0832,-7.87883 1.8724,-2.63363 3.6896,-6.08671 4.0381,-7.67352 0.3485,-1.58682 2.8448,-5.21281 5.5473,-8.05777 2.7025,-2.84496 5.7748,-6.58873 6.8274,-8.31948 2.2167,-3.64502 8.85972,-8.45304 14.44064,-10.45165 2.13177,-0.76341 4.11293,-2.00558 4.40257,-2.76037 0.28964,-0.7548 2.4521,-2.59346 4.80547,-4.08592 2.35337,-1.49246 5.78884,-4.70151 7.63439,-7.13122 4.45105,-5.85993 15.24673,-11.35518 27.28162,-13.88697 4.95,-1.04133 12.98333,-3.28236 17.85185,-4.98006 10.66117,-3.71766 21.2197,-5.38165 26.54952,-4.18412 2.54286,0.57135 6.19235,0.41364 10.72641,-0.4635 19.28841,-3.7315 43.27178,-0.0193 55.32501,8.56339 1.57077,1.11848 4.24416,2.03361 5.94085,2.03361 10.68969,0 32.5648,15.90581 39.20009,28.50313 1.32345,2.51261 4.91087,7.1505 7.97205,10.30642 8.20254,8.4564 13.89291,21.48705 13.92235,31.88143 0.007,2.30504 0.4683,4.47308 1.02616,4.81785 1.56477,0.96708 4.64444,7.59417 5.34006,11.49117 0.34361,1.925 0.26054,4.84641 -0.18461,6.49202 -0.55696,2.05893 -0.24184,4.8155 1.01045,8.8391 2.21903,7.12975 2.27267,10.51005 0.28771,18.13081 -2.04056,7.83423 -6.97397,15.71988 -14.65474,23.42447 -8.53652,8.5629 -13.98475,12.1617 -19.62712,12.9642 l -4.68604,0.6666 -0.5,5.4914 c -0.6519,7.1596 -4.18189,13.0766 -12.27485,20.5749 -10.5311,9.7573 -25.77784,17.4165 -34.67015,17.4165 -2.74391,0 -5.34529,1.0035 -9.03133,3.4841 -2.84752,1.9162 -7.50524,4.2063 -10.35049,5.089 -6.18974,1.9204 -21.68046,2.7281 -26.92726,1.4039 z m 22.79398,-5.529 c 7.17433,-1.8682 14.10293,-5.7473 14.93219,-8.3601 0.52529,-1.655 1.06242,-1.7791 4.08667,-0.9441 3.95716,1.0927 12.81872,-0.7652 19.21558,-4.0287 9.83169,-5.0157 21.34163,-15.6219 25.31296,-23.3253 1.82942,-3.5486 2.63193,-9.7898 1.2588,-9.7898 -2.5792,0 -20.12442,11.1204 -29.51695,18.7083 -6.15618,4.9733 -7.57567,5.6176 -18.39847,8.351 -13.33818,3.3686 -22.87508,7.3094 -24.98748,10.3253 -1.05677,1.5087 -1.4432,1.6527 -1.4432,0.5379 0,-0.8374 0.51008,-2.0326 1.13351,-2.656 1.56628,-1.5663 -4.23552,-5.0093 -9.86323,-5.8532 -2.36218,-0.3543 -4.55864,-1.0709 -4.88101,-1.5925 -0.62442,-1.0103 5.39447,-0.178 9.36073,1.2944 1.77248,0.658 2.27462,0.4691 2.366,-0.89 0.0963,-1.4319 0.19952,-1.3977 0.60734,0.2014 0.27024,1.0597 1.42663,2.684 2.56976,3.6097 1.96521,1.5913 2.36669,1.551 7.37019,-0.7397 2.91048,-1.3325 10.55132,-3.751 16.97965,-5.3745 6.42833,-1.6235 12.17594,-3.3273 12.77247,-3.7864 0.59652,-0.459 3.78459,-3.0048 7.08459,-5.6573 7.30854,-5.8745 14.73001,-10.6794 23.99161,-15.5328 6.35273,-3.3291 7.16257,-4.1109 8.86255,-8.5548 3.59587,-9.3999 4.21279,-13.97869 2.39656,-17.78739 -1.86353,-3.9078 -4.45079,-5.0699 -9.27365,-4.1651 -2.6472,0.4966 -4.28631,1.9311 -7.82147,6.845 -5.88478,8.17989 -11.56186,13.49589 -20.39607,19.09909 -3.98225,2.5257 -10.61975,7.5394 -14.75,11.1416 -4.13024,3.6021 -7.50953,6.1686 -7.50953,5.7034 0,-0.4653 2.53307,-3.0329 5.62906,-5.7057 5.32539,-4.5976 5.52769,-4.9383 3.75,-6.3157 -1.77,-1.3714 -1.7345,-1.4215 0.61161,-0.8617 3.83028,0.914 15.16105,-6.3887 24.64783,-15.8854 6.38676,-6.39349 9.02145,-9.95639 12.24057,-16.55299 3.42091,-7.01012 4.10362,-7.89799 4.11149,-5.34704 0.005,1.68238 0.65808,3.93238 1.45087,5 1.83348,2.46904 4.12229,1.24425 6.71751,-3.59482 2.50896,-4.67821 2.72025,-28.26382 0.28436,-31.74154 -1.82949,-2.61197 -0.78202,-3.03693 1.16465,-0.47251 1.23015,1.62051 1.3308,1.58352 1.36025,-0.5 0.0175,-1.2375 0.39301,-2.25 0.83449,-2.25 0.44149,0 0.47946,2.5875 0.0844,5.75 -0.39507,3.1625 -0.75629,9.92833 -0.8027,15.03518 -0.0828,9.11349 -0.0458,9.26455 2.00127,8.16898 3.05412,-1.63452 3.40501,-0.50567 0.44556,1.43343 -2.46448,1.61479 -2.53121,1.96055 -2.53121,13.11522 0,8.24309 -0.45586,12.59599 -1.62518,15.51839 -1.86557,4.6625 -1.54083,5.3163 2.58253,5.1991 6.73674,-0.1916 22.96194,-15.60329 28.30631,-26.88722 2.74391,-5.79339 3.23011,-7.93483 3.19537,-14.07405 -0.0242,-4.27556 -0.5361,-7.7361 -1.25,-8.45 -0.94538,-0.94537 -1.20904,-0.85118 -1.20904,0.43195 0,0.90254 -0.40719,1.89265 -0.90487,2.20023 -0.51161,0.31619 -0.68117,-1.10859 -0.39016,-3.27824 0.33372,-2.48813 -0.0604,-4.94957 -1.12081,-7.00022 -1.72756,-3.34073 -1.14325,-4.30961 0.90758,-1.50493 1.07747,1.47353 1.28742,1.3582 1.8887,-1.03747 1.35219,-5.38755 -4.09185,-17.30894 -6.70912,-14.69167 -1.85309,1.85309 -3.06332,1.16196 -1.32631,-0.75742 2.08548,-2.30443 2.12253,-7.9556 0.10299,-15.71116 -1.95941,-7.52468 -5.35098,-13.32859 -11.5421,-19.75177 -4.61622,-4.78925 -4.96503,-4.96479 -6.71624,-3.37997 -2.05573,1.86041 -6.18966,2.26398 -6.18966,0.60425 0,-0.58706 0.8245,-0.8057 1.83222,-0.48586 1.11955,0.35533 2.50921,-0.16654 3.5727,-1.34169 1.64234,-1.81476 1.64478,-2.1116 0.0433,-5.26413 -4.29291,-8.45043 -14.98503,-18.05435 -26.66301,-23.94938 -9.90618,-5.00062 -15.57244,-3.02533 -12.437,4.33561 2.21245,5.19408 5.58845,7.58069 12.8877,9.11074 5.31899,1.11495 7.20563,2.03333 9.30667,4.53027 2.84067,3.37595 4.45747,3.98924 4.45747,1.69085 0,-0.79254 0.45,-1.7191 1,-2.05902 1.51826,-0.93833 1.19461,1.86063 -0.46932,4.05887 -1.41688,1.87185 -1.61125,1.7943 -5.44576,-2.17284 -3.30825,-3.42268 -4.84536,-4.22925 -9.14742,-4.79993 -2.84404,-0.37728 -5.33664,-0.52029 -5.53912,-0.31782 -0.20248,0.20248 0.47655,2.02495 1.50894,4.04993 1.03234,2.02499 1.52681,3.68179 1.09877,3.68179 -0.76262,0 -4.00614,-6.09651 -4.00614,-7.52993 0,-0.40022 -1.575,-2.47101 -3.5,-4.60175 -1.925,-2.13075 -3.5,-4.34934 -3.5,-4.93022 0,-0.58087 -0.44379,-0.78186 -0.9862,-0.44663 -0.5424,0.33522 -5.00503,-1.0176 -9.91693,-3.00629 -4.91191,-1.98868 -10.5411,-3.6989 -12.50932,-3.80048 -1.96822,-0.10159 -3.5806,-0.5222 -3.58307,-0.9347 -0.007,-1.20622 5.16249,-0.78219 9.49552,0.77884 2.2,0.79257 4.12107,1.44782 4.26905,1.4561 0.14798,0.008 0.0142,-1.22244 -0.29723,-2.73494 -0.49414,-2.39965 -0.30498,-2.27722 1.48484,0.96102 1.52519,2.75947 3.07744,4.01852 6.05368,4.91023 4.57806,1.37161 4.50706,1.40783 5.28603,-2.69632 0.54198,-2.85548 0.21305,-3.29713 -4.60636,-6.18485 -2.8545,-1.71038 -8.34001,-4.1516 -12.19001,-5.42493 -6.2252,-2.0589 -8.77097,-2.30256 -23,-2.20144 -8.8,0.0625 -17.32068,0.53708 -18.93484,1.05452 -3.35641,1.07595 -4.641,3.33116 -1.89849,3.33299 1.00833,6.7e-4 5.136,2.70068 9.17259,6 4.03659,3.29933 7.97409,5.99878 8.75,5.99878 0.77591,0 1.41043,0.3375 1.41004,0.75 -3.8e-4,0.4125 -2.28353,0.78357 -5.07366,0.8246 -4.41034,0.0649 -4.78938,-0.0772 -2.90194,-1.08728 2.09778,-1.1227 1.99063,-1.32029 -3.17634,-5.85753 -2.94105,-2.58259 -6.42649,-4.97132 -7.74543,-5.30828 -3.8761,-0.99026 -15.12894,1.5756 -21.27397,4.85087 -5.83857,3.11193 -7.68137,5.37421 -5.86074,7.19484 0.56803,0.56803 1.03278,1.66763 1.03278,2.44356 0,0.93025 -0.59609,0.67619 -1.75,-0.74585 -1.6873,-2.07938 -1.90729,-2.10108 -6.14027,-0.60566 -5.91508,2.08967 -11.10973,5.3987 -11.10973,7.07698 0,1.48522 2.75786,2.0887 12.9752,2.83927 3.56136,0.26161 6.61455,0.89374 6.78488,1.40473 0.17033,0.51099 1.36124,0.72805 2.64647,0.48236 2.82206,-0.53946 7.12435,1.56262 11.42993,5.58464 3.0847,2.88154 3.22146,2.91301 4.25633,0.97933 0.58808,-1.09883 1.29423,-1.77287 1.56923,-1.49787 0.275,0.275 10e-4,1.43169 -0.60806,2.57043 -0.92652,1.73122 -0.54292,2.93311 2.34128,7.33565 4.77148,7.28337 7.45741,10.03572 9.15705,9.38351 0.79623,-0.30554 1.44769,-0.0672 1.44769,0.52966 0,0.61831 -1.07557,0.87959 -2.5,0.60729 -2.06455,-0.39467 -2.5,-0.0879 -2.5,1.76098 0,1.23138 -0.62685,2.75912 -1.393,3.39497 -1.17808,0.97772 -1.07683,1.80658 0.65631,5.37244 2.67736,5.50854 3.52577,17.39975 1.43898,20.16869 -1.33987,1.77787 -1.19287,2.29886 1.64516,5.8304 1.71408,2.13294 4.24961,5.96238 5.63453,8.50986 1.59493,2.9338 3.4345,4.88404 5.01802,5.31991 2.37106,0.65265 2.38395,0.69328 0.25,0.78782 -1.98486,0.0879 -2.2647,0.65941 -2.37476,4.84968 l -0.12475,4.75 -0.73679,-5.01002 c -0.98206,-6.67779 -5.14295,-14.64097 -10.84783,-20.76076 -3.49557,-3.7498 -4.1168,-4.83313 -2.47677,-4.31916 2.69175,0.84359 4.3109,-1.68753 4.3109,-6.73898 0,-4.66587 -3.52467,-15.79708 -5.99757,-18.94087 -2.58827,-3.29045 -2.57609,-4.55934 0.0212,-2.20883 1.50424,1.36132 2.31364,1.54135 3.15358,0.70141 1.65135,-1.65135 -1.38445,-8.92588 -6.78831,-16.26651 -5.41042,-7.34953 -12.60878,-12.28653 -16.62738,-11.4039 -1.51883,0.33359 -2.76152,0.2184 -2.76152,-0.25598 0,-0.47439 -5.26369,-1.42145 -11.69708,-2.1046 -11.45801,-1.21669 -11.73904,-1.1983 -13.75,0.90012 -1.45279,1.51598 -1.68751,2.27851 -0.80292,2.60848 2.27901,0.8501 1.29368,2.34867 -1.1423,1.73728 -4.51184,-1.1324 -14.6077,5.86745 -14.6077,10.12809 0,2.37199 4.31727,4.81139 7.64983,4.32241 3.28854,-0.48252 6.20235,1.13658 8.37659,4.65457 1.26731,2.05054 3.40743,3.84107 5.29965,4.43392 l 3.17393,0.99444 -3.1627,-0.29955 c -3.00046,-0.28418 -3.18149,-0.10262 -3.5288,3.53928 -0.30385,3.1862 0.12151,4.30214 2.50198,6.564 5.20758,4.94809 6.02882,7.66432 5.32313,17.60609 -0.53502,7.53739 -0.37313,9.24941 1.02022,10.78905 1.78271,1.96988 5.83785,2.46152 6.84617,0.83002 0.33992,-0.55 1.15398,-0.98569 1.80902,-0.9682 0.65504,0.0175 0.37897,0.64753 -0.61349,1.40008 -1.71239,1.29844 -1.67411,1.49863 0.75,3.92274 1.58851,1.58851 2.5257,3.61156 2.47839,5.34993 -0.0755,2.77346 -0.0857,2.76889 -1.29783,-0.58164 -1.32662,-3.66693 -4.92098,-7.12291 -7.40813,-7.12291 -1.9889,0 -5.21796,-2.89154 -5.21796,-4.67255 0,-0.74941 -1.94786,0.67033 -4.32858,3.15499 -2.38072,2.48466 -4.96822,4.51778 -5.75,4.51805 -0.78178,2.7e-4 -3.35889,2.25027 -5.7269,5 -2.36802,2.74973 -4.84302,4.98454 -5.5,4.96624 -0.65699,-0.0183 -0.29452,-0.8228 0.80548,-1.78779 1.1,-0.96498 2.83988,-2.73083 3.86641,-3.9241 1.84784,-2.148 1.82891,-2.20494 -1.90367,-5.72521 -2.07354,-1.9556 -3.48222,-3.84348 -3.13041,-4.19529 0.35181,-0.35182 1.57862,0.55403 2.72625,2.013 3.3882,4.3074 8.26889,3.71235 13.39019,-1.63253 9.12243,-9.5207 8.4779,-23.76435 -1.37027,-30.28156 -4.4799,-2.96466 -5.14797,-3.90746 -2.0785,-2.93325 1.69685,0.53856 2,0.1797 2,-2.36751 0,-6.96595 -4.04551,-12.13249 -9.5,-12.13249 -3.06667,0 -3.5,0.30952 -3.5,2.5 0,1.375 -0.40787,2.5 -0.90638,2.5 -0.49851,0 -0.67674,-0.87814 -0.39607,-1.95143 0.3357,-1.28372 -0.42057,-2.81414 -2.21025,-4.47276 -2.26455,-2.09871 -3.07816,-2.3378 -4.85393,-1.42639 -2.43199,1.24822 -7.63337,5.91256 -7.63337,6.84522 0,0.34126 1.81573,1.42156 4.03495,2.40068 2.21923,0.97912 5.00385,3.09072 6.18806,4.69245 1.18421,1.60173 3.08098,2.96443 4.21505,3.02823 1.68735,0.0949 1.74402,0.19908 0.31194,0.57333 -0.9625,0.25152 -1.75,1.38461 -1.75,2.51797 0,1.13337 -0.52556,3.81481 -1.1679,5.95878 -0.89054,2.97235 -0.89054,4.17548 0,5.06602 0.64234,0.64234 1.15293,1.6404 1.13463,2.2179 -0.0183,0.5775 -0.93626,-0.0345 -2.03992,-1.36008 -1.52237,-1.82844 -2.28662,-2.13011 -3.16673,-1.25 -0.63804,0.63804 -1.63258,1.15784 -2.21008,1.15511 -0.5775,-0.003 0.19427,-1.01523 1.71506,-2.25 5.63097,-4.57196 5.23283,-12.73802 -0.84716,-17.37545 -6.45114,-4.92052 -11.9774,-3.06125 -18.20845,6.12613 -2.85336,4.20712 -3.10056,5.04175 -1.86055,6.28176 1.93194,1.93194 6.73289,0.80284 10.18337,-2.39496 1.47966,-1.3713 2.89497,-2.2886 3.14513,-2.03845 0.81716,0.81716 -3.98896,4.63915 -7.37203,5.86248 -2.43547,0.88067 -3.30537,1.80031 -3.30537,3.49435 0,1.26451 -0.43588,2.29911 -0.96862,2.29911 -0.53273,0 -0.70316,-0.69176 -0.37871,-1.53725 0.32444,-0.84548 -0.21785,-2.42978 -1.20509,-3.52067 -1.78168,-1.96874 -1.81668,-1.9629 -4.72306,0.78724 -2.96021,2.80111 -11.72451,14.49801 -11.72451,15.64767 0,1.3207 5.7496,0.53507 9.28855,-1.26919 3.8478,-1.96172 5.17443,-1.50254 1.78125,0.61653 -1.0616,0.66298 -2.12311,2.45873 -2.3589,3.99055 -0.4116,2.67397 -0.459,2.69532 -1.1864,0.53512 -0.6112,-1.81474 -1.5057,-2.25 -4.6243,-2.25 -3.6106,0 -4.0265,0.31576 -6.2845,4.77158 -2.5543,5.04076 -6.6157,16.63951 -6.6157,18.89358 0,0.73416 0.6199,1.33484 1.3775,1.33484 0.7577,0 1.9106,0.64219 2.562,1.42708 0.7828,0.94327 2.2975,1.24645 4.4676,0.89428 7.3837,-1.19822 13.62323,5.57786 11.78926,12.80311 -0.54104,2.13154 -0.73653,3.87554 -0.43443,3.87554 0.3021,0 2.05425,-1.1479 3.89367,-2.5509 1.83941,-1.40299 3.34439,-2.12975 3.34439,-1.61501 0,1.12367 -4.74833,4.45921 -7.3766,5.18181 -1.05779,0.2909 -3.76899,3.9995 -6.21379,8.49999 -7.5438,13.8868 -7.6729,14.5551 -4.1596,21.5222 1.7432,3.4568 2.9258,4.5793 5.25,4.9831 1.9872,0.3452 2.575,0.789 1.741,1.3145 -0.6924,0.4364 -2.1549,0.509 -3.25,0.1614 -1.734,-0.5503 -1.991,-0.1715 -1.991,2.9355 0,1.9621 -0.3596,3.5674 -0.7992,3.5674 -0.4396,0 -0.614,-1.5863 -0.3877,-3.5251 0.255,-2.184 -0.3921,-5.3933 -1.7008,-8.4354 -1.1618,-2.7006 -2.1123,-5.9921 -2.1123,-7.3144 0,-1.5939 -0.8425,-2.7879 -2.5,-3.5432 -1.375,-0.6264 -2.5,-1.6091 -2.5,-2.1835 0,-0.5759 1.0894,-0.3307 2.4284,0.5466 2.2529,1.4762 2.4975,1.4598 3.3849,-0.2269 0.526,-1 2.8805,-5.4181 5.232,-9.8181 2.3516,-4.39999 4.8756,-9.12499 5.609,-10.49999 2.98552,-5.59771 1.1704,-11.33964 -4.3082,-13.62876 -4.4974,-1.87913 -6.6156,-1.145 -8.1085,2.81031 -0.6616,1.75261 -1.4721,2.91727 -1.8012,2.58814 -0.3292,-0.32912 -0.1136,-1.50435 0.479,-2.61161 1.4704,-2.74746 0.3461,-5.15809 -2.4058,-5.15809 -2.7809,0 -3.3373,1.69827 -4.1791,12.75662 -0.5415,7.11409 -0.3789,8.53249 1.1755,10.24999 0.9922,1.0964 1.3066,1.9934 0.6987,1.9934 -0.6079,0 -1.546,-0.7875 -2.0847,-1.75 -0.8636,-1.5431 -1.1095,-1.4077 -2.0802,1.1454 -1.7844,4.69329 -2.3053,13.76479 -1.0682,18.60459 0.6327,2.475 1.1979,5.0625 1.256,5.75 0.058,0.6875 0.5932,1.2637 1.1891,1.2804 0.5958,0.017 0.3427,0.4628 -0.5624,0.9913 -1.9785,1.1552 -1.3338,4.8724 2.7611,15.9198 2.6988,7.2811 6.9719,12.0585 10.7857,12.0585 1.5697,0 1.5827,-0.1851 0.1556,-2.2225 -0.8562,-1.2224 -1.5212,-3.3599 -1.4778,-4.75 0.063,-2.0261 0.3768,-1.6862 1.5803,1.7133 4.1334,11.6755 19.73675,16.1809 32.84079,9.4825 1.65,-0.8435 5.76337,-1.5763 9.14083,-1.6284 5.19989,-0.08 7.49253,-0.7844 14.96249,-4.5949 6.66657,-3.4007 9.31623,-5.3546 10.84611,-7.9981 2.77976,-4.8032 2.64371,-13.484 -0.28923,-18.455 -2.68543,-4.5514 -2.73603,-5.8182 -0.10627,-2.6606 1.79429,2.1544 2.1554,2.24 3.71673,0.8805 0.95114,-0.8282 2.34306,-1.6941 3.09316,-1.9243 0.9047,-0.2775 1.42114,-2.2571 1.5341,-5.8804 0.0937,-3.0042 0.54369,-6.3621 1.00006,-7.4621 0.53625,-1.2925 -0.0821,-0.9388 -1.74814,1 -2.94061,3.4221 -3.49281,2.7162 -0.93224,-1.1918 1.80043,-2.7478 2.3801,-11.63229 1.06533,-16.32809 -1.1352,-4.05454 -4.49742,-6.98011 -8.02189,-6.98011 -2.34024,0 -2.86912,-0.29192 -2.0368,-1.12424 0.81559,-0.81559 1.96864,-0.82987 4.2,-0.052 2.72724,0.95073 3.07576,0.85818 3.07576,-0.81674 0,-1.03893 0.44322,-2.16289 0.98494,-2.49769 0.60705,-0.37518 0.76007,0.51563 0.39884,2.32177 -0.38696,1.93483 0.0102,3.84065 1.16907,5.60923 1.11332,1.69915 1.92978,5.39958 2.23266,10.11918 0.48761,7.59799 1.02092,8.58359 3.21449,5.94049 4.55484,-5.48819 14.96431,4.8263 14.99442,14.8577 0.004,1.3966 1.55692,0.4284 6.25558,-3.9007 7.1999,-6.6336 7.72256,-7.457 4.73333,-7.457 -1.20083,0 -3.76803,-1.5847 -5.70489,-3.5215 -2.772,-2.772 -3.81496,-3.2781 -4.9,-2.3776 -0.92326,0.7662 -1.37844,0.7928 -1.37844,0.081 0,-0.5849 0.45,-1.34149 1,-1.68149 1.43513,-0.8869 1.23445,-8.7971 -0.27558,-10.86216 -1.18846,-1.62531 -1.43943,-1.57006 -3.67432,0.80887 -1.3193,1.40429 -3.10779,2.54139 -3.97441,2.52669 -1.03039,-0.017 -0.67743,-0.5842 1.0199,-1.6379 3.6301,-2.25353 5.10691,-4.99795 5.42714,-10.08552 0.40604,-6.4508 1.63634,-6.64152 1.37628,-0.21335 -0.2341,5.7864 0.98068,9.21077 3.86325,10.89017 1.53775,0.8959 1.5498,1.0159 0.10476,1.0428 -1.484,0.028 -1.78446,2.2438 -0.97665,7.2035 0.0603,0.3702 1.49425,2.05769 3.18655,3.74999 2.20876,2.2088 4.02022,3.0769 6.42012,3.0769 2.83767,0 4.18901,-0.945 8.93681,-6.24999 3.07648,-3.4375 6.49407,-8.0932 7.59463,-10.34617 1.10057,-2.25291 3.09775,-4.5959 4.43818,-5.20664 1.34043,-0.61074 3.19883,-2.59245 4.12977,-4.4038 2.60628,-5.07103 9.22619,-14.67346 14.54931,-21.10431 2.6455,-3.19603 5.28731,-7.58353 5.87068,-9.75 0.58337,-2.16647 1.31711,-3.93904 1.63053,-3.93904 0.56974,0 -0.0933,3.39365 -1.25403,6.41844 -0.47084,1.22701 -0.17791,1.45391 1.24574,0.96492 1.02374,-0.35162 0.17682,0.79858 -1.88203,2.556 -4.57118,3.90193 -11.06451,12.24612 -16.69524,21.45404 -3.29999,5.39648 -3.92721,7.08847 -2.88838,7.7917 1.05474,0.714 1.01924,0.84952 -0.17301,0.66055 -2.91713,-0.46236 -5.65839,1.21388 -7.21926,4.41449 -2.2298,4.57222 -8.33083,11.36321 -23.06401,25.67211 -14.05812,13.6533 -20.7189,22.4747 -20.71299,27.4317 0.009,7.8017 9.40719,14.9756 16.53608,12.6229 1.9031,-0.6281 3.46018,-1.5571 3.46018,-2.0645 0,-0.5073 0.5051,-0.9224 1.12244,-0.9224 1.79773,0 -1.19678,3.0754 -4.08134,4.1917 l -2.5411,0.9833 4.19449,3.7491 c 2.30696,2.062 6.35696,4.4699 9,5.3508 6.19853,2.066 17.27972,2.1432 24.84541,0.1731 z m -104.89804,-18.4845 c 0.4047,-2.5997 -0.19193,-5.1621 -2.25261,-9.6744 -2.44037,-5.3437 -3.04233,-6.01 -4.65162,-5.1487 -1.01668,0.5441 -2.35102,0.8218 -2.96521,0.6171 -0.61418,-0.2048 0.36373,-0.9855 2.17314,-1.735 3.27809,-1.3578 3.28756,-1.3819 2.65473,-6.7664 -0.34931,-2.972 -1.28918,-6.9691 -2.0886,-8.8824 -1.2929,-3.0943 -1.27204,-3.9425 0.18873,-7.6762 1.92968,-4.9322 6.30795,-11.59409 11.12128,-16.92189 5.17485,-5.72795 4.89559,-9.41153 -1.46381,-19.30854 -3.2675,-5.08515 -5.95226,-8.17303 -7.47782,-8.60062 -5.08422,-1.42502 -13.41489,-0.88801 -17.35036,1.11843 -4.4177,2.25226 -5.9362,1.98278 -2.2899,-0.40637 1.8887,-1.23753 2.3177,-2.2332 1.9733,-4.57991 -0.2435,-1.65905 0.016,-2.9986 0.5798,-2.9986 0.5609,0 0.7859,0.89453 0.5,1.98785 -0.6613,2.52898 0.3009,2.82456 10.45709,3.21214 l 8.25,0.31484 0.0153,-6.50742 c 0.008,-3.57907 0.38519,-7.09048 0.83727,-7.80313 0.45208,-0.71265 0.61697,2.24539 0.36643,6.57341 -0.454,7.84256 -0.44107,7.8925 3.82987,14.79572 2.35697,3.80962 4.95492,8.33608 5.77322,10.05879 l 1.4878,3.13221 5.09505,-2.3475 c 2.80228,-1.29112 6.10755,-3.51321 7.34505,-4.93797 1.36295,-1.5692 2.25,-2.03822 2.25,-1.18969 0,1.98196 -2.84257,4.31122 -8.09871,6.63626 -2.4891,1.10105 -5.34884,2.91155 -6.355,4.02333 -1.75597,1.94033 -1.75905,2.20554 -0.0768,6.61047 2.84602,7.4522 13.36344,13.52409 20.83668,12.02949 2.48666,-0.4974 2.75276,-0.3647 1.73315,0.8638 -0.68354,0.8236 -0.91689,2.4454 -0.53949,3.7494 0.63735,2.2022 0.56787,2.1874 -1.66738,-0.3551 -1.34953,-1.535 -3.85217,-2.9123 -5.9387,-3.2683 -5.43391,-0.9271 -12.49241,-6.06089 -14.58913,-10.61089 -0.99254,-2.1539 -2.02962,-3.9064 -2.30462,-3.8946 -1.16591,0.05 -9.07258,10.90709 -11.58263,15.90449 l -2.72713,5.4295 1.65488,6.2106 c 0.91018,3.4158 1.66476,8.1617 1.67684,10.5464 0.0254,5.0179 2.95598,12.1465 5.63312,13.7027 1.01471,0.5898 1.27385,1.0861 0.57587,1.1028 -0.81266,0.019 -1.06635,0.8396 -0.70541,2.2804 0.31853,1.2715 -0.0882,3.1198 -0.93528,4.25 -1.40733,1.8778 -1.46528,1.7839 -0.9484,-1.5365 z m 70.85814,-1.4682 c 1.65,-0.7378 5.23308,-3.6261 7.96241,-6.4184 3.02139,-3.0911 5.83172,-5.0769 7.1849,-5.0769 5.32482,0 11.9902,-4.5502 14.94197,-10.2004 2.01504,-3.857 1.75206,-5.7193 -0.9529,-6.7478 -2.74166,-1.0423 -3.86733,-3.3081 -2.88244,-5.8018 0.54962,-1.3916 0.79919,-1.1587 1.21861,1.1373 0.31625,1.7311 1.38496,3.2038 2.66896,3.6776 1.83907,0.6788 3.09119,-0.3657 8.86631,-7.3956 3.69865,-4.5023 8.52397,-11.10729 10.72293,-14.67769 2.63638,-4.2806 3.77886,-5.5411 3.35438,-3.7008 -0.64159,2.7815 -0.6343,2.786 2.18744,1.3268 4.0666,-2.1029 10.6834,-9.6105 13.67719,-15.51846 5.0593,-9.98405 6.73623,-23.76027 3.38393,-27.79954 -0.7251,-0.87369 -0.73803,-1.29961 -0.0395,-1.29961 0.57151,0 1.24997,0.5625 1.50769,1.25 0.32697,0.87222 0.98128,0.64555 2.16497,-0.75 1.69639,-2 1.69639,-2 0.95951,0 -0.40529,1.1 -1.06902,5.44778 -1.47496,9.66174 -0.87251,9.05736 -2.12904,13.31331 -6.24458,21.15085 -3.24651,6.18259 -11.38805,14.31832 -15.3148,15.30382 -1.38102,0.3467 -4.2328,3.2092 -6.84752,6.87339 -2.46447,3.4536 -6.74518,8.7569 -9.51269,11.785 -3.19861,3.4998 -5.03184,6.4056 -5.03184,7.9759 0,1.3586 -1.125,4.128 -2.5,6.1542 -1.375,2.0261 -2.5522,4.6764 -2.616,5.8895 -0.0776,1.4762 -0.25881,1.6706 -0.54787,0.5878 -0.39001,-1.461 -0.78684,-1.4368 -4.09544,0.25 -2.01496,1.0273 -4.91415,1.8678 -6.44264,1.8678 -2.01304,0 -3.95314,1.261 -7.03855,4.5748 -4.30954,4.6285 -8.58417,7.4927 -10.95984,7.3436 -0.71481,-0.045 0.0503,-0.6852 1.70034,-1.4231 z m -56.44755,-5.811 c -0.0288,-0.4487 0.41468,-1.6886 0.98561,-2.7554 0.57093,-1.0668 1.17668,-4.7497 1.3461,-8.1843 0.31771,-6.4408 -1.11282,-11.6823 -4.08461,-14.9661 -1.51699,-1.6763 -1.74545,-1.685 -3.46186,-0.1316 -1.83162,1.6576 -2.65084,0.6086 -0.93476,-1.1969 0.49662,-0.5225 1.05961,-1.8206 1.2511,-2.8846 0.27123,-1.5071 1.17651,-0.7318 4.09707,3.5087 2.06189,2.9938 3.7489,6.0018 3.7489,6.6846 0,1.655 1.87094,1.557 5.39878,-0.2828 1.59433,-0.8314 3.1328,-1.2777 3.41883,-0.9916 0.28603,0.286 -1.35135,1.3065 -3.63861,2.2679 l -4.15866,1.7478 -0.0102,6.691 c -0.006,3.68 0.43983,6.9691 0.98983,7.309 0.55,0.3399 0.98569,1.154 0.9682,1.809 -0.0175,0.6551 -0.6338,0.3978 -1.36957,-0.5718 -1.25923,-1.6592 -1.43038,-1.6299 -2.91574,0.5 -0.86789,1.2446 -1.60159,1.8957 -1.63044,1.4471 z m -26.61132,-25.2161 c 1.06762,-0.8075 2.41762,-1.4539 3,-1.4364 0.58238,0.018 0.18536,0.6925 -0.88226,1.5 -1.06762,0.8075 -2.41762,1.4539 -3,1.4364 -0.58238,-0.017 -0.18536,-0.6925 0.88226,-1.5 z m 205.55887,-23.96819 c 0,-1.8082 -1.16679,-1.9332 -2.8,-0.3 -0.93333,0.9333 -1.2,0.9333 -1.2,0 0,-0.66 0.472,-1.2 1.04889,-1.2 0.57689,0 1.91701,-1.91251 2.97804,-4.25001 2.03667,-4.48688 2.60549,-15.84029 1.32692,-26.48455 -0.60251,-5.01588 -0.73791,-5.21045 -3.24131,-4.6575 -2.4622,0.54384 -2.42864,0.45938 0.5832,-1.46775 5.25213,-3.3606 5.51501,-9.11453 1.15989,-25.38783 -1.70103,-6.35606 -2.54783,-7.97476 -4.71454,-9.01214 -1.4526,-0.69548 -3.85347,-3.50905 -5.33526,-6.25237 -1.48179,-2.74332 -3.86938,-6.00036 -5.30576,-7.23786 -1.85256,-1.59605 -2.15666,-2.25 -1.04633,-2.25 1.45559,0 3.29911,2.27549 8.84932,10.92291 3.36599,5.24433 4.23809,4.81013 3.85812,-1.92089 -0.18635,-3.30111 0.0505,-6.00202 0.52642,-6.00202 0.47589,0 0.69959,1.73712 0.49712,3.86027 -0.23709,2.48611 0.77634,7.38077 2.84691,13.75 3.61966,11.13431 4.90602,22.71183 3.0274,27.24721 -0.92891,2.24259 -0.9367,5.1756 -0.0344,12.93716 1.0044,8.63953 0.93134,11.22405 -0.52469,18.56172 -0.93036,4.68854 -1.3969,9.00135 -1.03675,9.58415 0.36018,0.5827 0.17829,1.0595 -0.40417,1.0595 -0.58246,0 -1.05902,-0.675 -1.05902,-1.5 z m -40.67891,-20.99553 c 0.12474,-2.43716 0.65599,-3.49687 1.7546,-3.5 2.27003,-0.006 5.8134,-4.13097 6.94819,-8.08775 0.53687,-1.87194 0.97612,-6.42816 0.97612,-10.12494 0,-5.59316 -0.32072,-6.89307 -1.91062,-7.74396 -1.05085,-0.56239 -2.88755,-2.60322 -4.08156,-4.53518 -1.68016,-2.71855 -2.83071,-3.51265 -5.08938,-3.51265 -1.60514,0 -2.91844,-0.37206 -2.91844,-0.82681 0,-0.45474 1.31471,-0.63385 2.92158,-0.39801 2.44933,0.35949 3.17672,-0.0646 4.5,-2.62353 0.86813,-1.67878 1.57842,-3.74968 1.57842,-4.60199 0,-0.85231 0.48032,-1.54966 1.06739,-1.54966 1.17531,0 0.50504,2.87565 -1.66534,7.14476 -1.20024,2.36088 -1.10614,2.99392 0.87669,5.89754 3.19516,4.67894 5.57157,5.88654 9.45868,4.80653 9.55991,-2.65616 7.25494,-21.93313 -3.7038,-30.97569 -3.0327,-2.50243 -13.01682,-7.15223 -13.79675,-6.42543 -0.14472,0.13487 0.44415,1.93794 1.30858,4.00684 0.86444,2.06889 1.33094,4.00239 1.03667,4.29666 -0.29427,0.29428 -0.81504,-0.31686 -1.15726,-1.35808 -0.34222,-1.04122 -1.94376,-4.68073 -3.55897,-8.0878 -6.3716,-13.44006 -17.04841,-19.92548 -28.56129,-17.34902 l -5.35265,1.19787 2.52403,2.99964 c 4.12837,4.9063 2.86573,5.23738 -1.72598,0.45257 -2.85812,-2.97831 -5.42598,-4.64823 -7.84077,-5.09898 -4.33985,-0.81007 -11.90923,1.04538 -11.90923,2.91927 0,2.52887 5.02663,18.70519 7.03691,22.64567 l 2.00374,3.92765 10.22967,0.0153 c 5.62633,0.008 10.88043,0.42702 11.6758,0.93022 2.32472,1.47078 4.88823,-0.61664 6.04837,-4.92507 0.58433,-2.17004 0.77583,-5.08739 0.42556,-6.483 -0.39492,-1.57347 -0.21578,-2.53746 0.47154,-2.53746 0.60963,0 1.10841,0.675 1.10841,1.5 0,0.825 0.6199,1.5 1.37756,1.5 0.75765,0 1.93775,0.675 2.62244,1.5 0.7516,0.90562 0.83314,1.5 0.20578,1.5 -0.57151,0 -1.21567,-0.52967 -1.43146,-1.17705 -0.6778,-2.03338 -2.52063,0.0112 -3.18051,3.52872 -0.34811,1.85556 -1.51598,4.1729 -2.59526,5.14965 -1.93954,1.75525 -1.92826,1.81471 0.97023,5.1159 2.88589,3.28685 3.38288,4.94136 4.47062,14.88278 0.35155,3.21306 0.21952,4.4872 -0.36943,3.56514 -0.50408,-0.78918 -1.22856,-4.16418 -1.60995,-7.5 -0.92642,-8.10275 -2.56796,-10.95489 -7.74847,-13.46273 -3.37679,-1.63468 -6.24779,-2.10241 -12.90483,-2.10241 -5.63094,0 -8.91604,0.4279 -9.59657,1.25 -0.56911,0.6875 -1.52864,3.97772 -2.13229,7.31161 -1.34452,7.42561 -0.14453,14.83585 3.44147,21.25189 2.94595,5.27088 2.54457,6.96162 -0.4865,2.04928 -4.89737,-7.93697 -6.24356,-20.91791 -3.04246,-29.33745 0.7144,-1.87903 0.36988,-3.68829 -1.47365,-7.73885 -1.32332,-2.90756 -3.56151,-9.33648 -4.97376,-14.28648 -1.45987,-5.11693 -3.28553,-9.43145 -4.23143,-10 -0.91504,-0.55 -4.95713,-4.01056 -8.98244,-7.69013 -5.39619,-4.9327 -8.43653,-6.94041 -11.57391,-7.64291 l -4.25518,-0.95278 3.61514,-0.10709 c 4.08047,-0.12088 6.52066,1.44795 15.0131,9.65213 5.98619,5.78299 6.51862,5.94146 15.87901,4.72613 3.93162,-0.51047 6.50652,-0.30057 9,0.73366 3.04665,1.26367 3.93977,1.26417 6.99275,0.004 4.17774,-1.72459 13.2647,-1.1732 17.58785,1.06723 3.81508,1.97713 10.71626,9.0025 12.98902,13.22276 1.36891,2.54191 2.8017,3.59681 5.96826,4.39416 2.29179,0.57708 6.57987,2.70907 9.52906,4.73776 2.97655,2.0475 6.58023,3.68853 8.1,3.68853 1.50581,0 2.50607,0.375 2.2228,0.83333 -0.28326,0.45832 -1.31887,0.83332 -2.30135,0.83332 -1.58993,0 -1.47351,0.62015 1.05902,5.64092 1.56494,3.10251 2.84785,6.81501 2.85092,8.25 0.01,4.66701 2.09963,10.30208 4.72133,12.73179 1.41082,1.30751 2.08219,2.37729 1.49192,2.37729 -0.59027,0 -2.45598,-1.67753 -4.14603,-3.72784 -1.81836,-2.20599 -3.0728,-3.09945 -3.0728,-2.18856 0,2.37282 -3.82641,5.93168 -7.0765,6.5817 l -2.9235,0.5847 -0.15844,8.125 c -0.0871,4.46875 -0.0774,8.9972 0.0216,10.06323 0.099,1.06602 -0.0743,1.68389 -0.38519,1.37304 -0.68558,-0.68558 -8.42936,7.05957 -8.59635,8.59787 -0.0651,0.59997 -0.0651,1.42836 0,1.84086 0.0651,0.4125 -0.29959,0.75 -0.81049,0.75 -0.5109,0 -0.8484,-1.57298 -0.75,-3.49552 z m -77.5263,-0.87239 c 0.52195,-4.47093 -2.34791,-10.24786 -4.29016,-8.63593 -1.66022,1.37786 -3.65381,-1.36034 -5.45771,-7.49616 -2.68026,-9.11672 -4.17215,-11.5 -7.19879,-11.5 -1.56647,0 -2.84813,-0.48032 -2.84813,-1.06739 0,-0.61319 0.85315,-0.79661 2.00493,-0.43105 1.31992,0.41893 2.20575,0.113 2.59271,-0.89542 0.74816,-1.94967 -2.24472,-11.06836 -4.15244,-12.65162 -0.79486,-0.65968 -1.4452,-1.66405 -1.4452,-2.23195 0,-0.5679 0.88856,-0.22841 1.97457,0.75442 1.90991,1.72844 2.00485,1.70734 2.89888,-0.64414 1.5067,-3.96293 1.61378,-9.06604 0.27977,-13.33285 -1.13399,-3.62706 -1.96863,-4.35006 -8.95191,-7.75457 -4.23572,-2.06501 -9.05131,-3.7594 -10.70131,-3.76531 -1.65,-0.006 -3.675,-0.46024 -4.5,-1.00963 -1.05343,-0.70149 -0.23471,-0.80774 2.75,-0.35688 4.5399,0.6858 4.86312,0.40053 3.15736,-2.78671 -0.79019,-1.47648 -0.79019,-2.34407 0,-3.13426 0.79019,-0.79019 1.09264,-0.47108 1.09264,1.15281 0,1.235 1.06816,3.31362 2.3737,4.61916 3.27514,3.27513 12.49527,7.80292 14.71005,7.22374 1.52536,-0.39889 1.73374,-0.0258 1.27281,2.27884 -0.5147,2.5735 1.55749,8.27477 3.3724,9.27857 0.42407,0.23455 0.24578,0.30362 -0.3962,0.15349 -1.25635,-0.2938 -2.32897,1.73895 -2.33892,4.43254 -0.003,0.91751 -0.61914,2.84294 -1.36833,4.27872 -1.1502,2.20429 -1.14924,3.11692 0.006,5.86481 0.75258,1.78987 1.36833,4.68763 1.36833,6.43949 0,1.75185 0.42827,3.61346 0.95171,4.1369 0.52345,0.52345 2.21095,4.55095 3.75,8.95 2.87098,8.20607 4.06167,9.36578 5.78542,5.63486 0.54292,-1.17511 1.34625,-2.13657 1.78518,-2.13657 0.43893,0 0.29636,0.93743 -0.31683,2.08319 -0.87081,1.62712 -0.78429,2.44849 0.39521,3.75183 2.28645,2.5265 3.82962,7.31043 3.18572,9.87595 -0.88319,3.5189 -2.18429,2.7129 -1.74162,-1.07888 z m -28.20798,73.30821 c 2.35388,-1.6195 4.56971,-3.8581 4.92406,-4.9746 0.35436,-1.1164 3.35919,-5.4464 6.67741,-9.622 6.74341,-8.4859 6.99949,-10.1929 2.82319,-18.82 -4.10835,-8.4867 -11.67145,-8.0988 -14.10691,0.7236 -0.95394,3.4557 -0.88527,5.3772 0.36639,10.2527 1.67336,6.5181 1.50384,8.2946 -0.39402,4.1292 -1.36868,-3.0039 -3.03428,-3.329 -5.32412,-1.0392 -1.26566,1.2657 -1.46108,2.849 -0.95789,7.7604 0.60909,5.9451 0.26661,7.4502 -3.42256,15.0407 -0.81521,1.6773 5.12634,-0.5005 9.41445,-3.4508 z m -90.4707,-2.1903 c -0.997,-2.3375 -2.3882,-6.725 -3.0916,-9.75 -0.7034,-3.025 -1.9664,-6.2875 -2.8067,-7.25 -0.8403,-0.9625 -1.0455,-1.75 -0.4561,-1.75 0.5894,0 1.2725,0.5625 1.5181,1.25 1.0666,2.9865 1.7646,-0.4275 0.7987,-3.9062 -1.6225,-5.8432 -1.2905,-14.4845 0.8166,-21.25469 1.0424,-3.349 1.5189,-6.0891 1.0591,-6.0891 -0.4599,0 -1.1143,0.45 -1.4542,1 -0.3399,0.55 -1.301,1 -2.1357,1 -0.975,0 -0.4697,-0.8819 1.413,-2.4661 2.4153,-2.0323 3.0384,-3.4832 3.5433,-8.24995 0.337,-3.18118 0.9032,-7.21753 1.2582,-8.96967 0.5814,-2.86967 0.4387,-3.13164 -1.4386,-2.64071 -1.1462,0.29974 -3.2717,1.64573 -4.7234,2.99109 -1.4516,1.34535 -2.8644,2.2211 -3.1394,1.9461 -0.275,-0.275 0.7876,-1.71505 2.3613,-3.2001 l 2.8613,-2.7001 -3.75,0.58184 c -2.0795,0.32266 -3.75,0.1644 -3.75,-0.35528 0,-0.51542 0.6891,-0.93713 1.5314,-0.93713 0.8422,0 1.7904,-0.675 2.107,-1.5 0.3166,-0.825 0.9633,-1.5 1.4372,-1.5 0.4739,0 0.6177,0.63564 0.3196,1.41254 -0.6022,1.56927 1.8351,2.39275 5.2609,1.77745 1.6081,-0.28882 2.4456,-1.53675 3.2948,-4.90941 0.6263,-2.48719 2.4725,-7.46383 4.1028,-11.05919 1.6302,-3.59537 2.7735,-6.72747 2.5408,-6.96023 -0.2328,-0.23276 -1.3618,0.0791 -2.5089,0.693 -1.3269,0.71016 -2.0856,0.75003 -2.0856,0.10962 0,-0.55363 1.2975,-1.35696 2.8833,-1.78519 2.0253,-0.54689 4.2552,-2.78727 7.4934,-7.52859 l 4.61,-6.75 -2.7434,-0.10045 c -2.2669,-0.083 -2.0574,-0.26115 1.2066,-1.0259 2.1724,-0.509 4.76093,-1.65947 5.75226,-2.55661 1.54675,-1.3998 6.79783,-9.85285 6.79783,-10.94299 0,-1.12904 -5.61689,-0.12575 -7.17126,1.28094 -1.00583,0.91024 -1.82873,1.1618 -1.82873,0.55902 0,-0.60279 0.45,-1.37409 0.99999,-1.71401 0.55,-0.33992 1.0522,-1.60398 1.116,-2.80902 0.0847,-1.59965 0.23638,-1.73452 0.56201,-0.49971 0.83459,3.16472 6.36795,2.6867 10.82199,-0.9349 8.06953,-6.56138 8.18587,-6.69319 6.23852,-7.06821 -0.95619,-0.18415 -1.73852,-0.78214 -1.73852,-1.32887 0,-0.54674 0.84829,-0.72483 1.88509,-0.39576 1.31647,0.41783 2.63843,-0.29698 4.38252,-2.36972 1.7503,-2.08012 3.10366,-2.80948 4.52393,-2.43807 1.58464,0.41439 2.40463,-0.26688 3.76062,-3.12442 1.17973,-2.4861 3.36672,-4.57661 6.84097,-6.53919 8.77474,-4.95679 8.34578,-4.34413 5.22598,-7.46393 -2.68787,-2.68787 -3.1024,-2.78033 -10.09454,-2.25151 -7.10353,0.53724 -11.14154,1.96472 -16.78633,5.93416 -3.15325,2.21738 -2.65888,4.1983 0.87898,3.52199 1.31053,-0.25052 2.38278,-0.009 2.38278,0.53667 0,0.57508 -1.46861,0.75385 -3.49344,0.42527 -6.34023,-1.02888 -21.50655,8.09641 -21.50655,12.94008 0,1.95034 2.6999,1.68884 7.73646,-0.74933 2.40235,-1.16296 4.6256,-1.85679 4.94054,-1.54185 0.31495,0.31495 -1.29669,1.32058 -3.58141,2.23474 -3.25342,1.30177 -4.0282,2.05857 -3.57365,3.49073 0.54476,1.7164 0.39359,1.73543 -2.46364,0.31006 -3.9759,-1.98344 -6.2394,-1.15389 -10.5305,3.85935 -3.9747,4.64354 -4.7571,7.48973 -1.5935,5.79662 1.0638,-0.56935 2.5263,-1.01529 3.25,-0.99098 0.7236,0.0243 -0.2593,0.8802 -2.1843,1.90198 -1.925,1.02179 -4.453,3.1532 -5.6178,4.73649 -3.1244,4.24696 -6.5623,11.31733 -5.503,11.31733 0.5059,0 3.2781,-1.58698 6.1604,-3.52662 2.8822,-1.93964 5.4291,-3.33799 5.6597,-3.10743 0.4447,0.44468 -5.0958,4.52677 -10.3495,7.62536 -2.9466,1.73783 -8.047,10.41929 -9.8464,16.75968 -0.5989,2.11029 -0.4628,2.18407 2.1771,1.1804 1.5487,-0.58883 3.6069,-1.78652 4.5738,-2.66153 0.9669,-0.87501 2.0039,-1.34499 2.3045,-1.0444 0.7324,0.73245 -4.4768,4.77454 -6.1532,4.77454 -1.7747,0 -6.1165,4.67901 -8.3513,9 -2.6872,5.19562 -3.4104,9.72598 -2.0695,12.96336 0.9528,2.30017 0.8766,3.40395 -0.406,5.88429 -1.8017,3.48414 -2.0609,11.01916 -0.5558,16.15896 0.5626,1.9214 1.5018,8.21839 2.0871,13.99339 1.6521,16.3018 5.9784,27.2535 12.2851,31.0993 4.948,3.0172 5.7846,2.489 3.7209,-2.3493 z m -16.1161,-64.50511 c 0,-0.55 0.675,-1.5602 1.5,-2.24489 0.8367,-0.69443 1.5,-0.80272 1.5,-0.24489 0,0.55 -0.675,1.5602 -1.5,2.24489 -0.8367,0.69443 -1.5,0.80272 -1.5,0.24489 z m 236.97775,12.00511 -0.0222,-3.75 -1.90735,2.48238 c -1.37877,1.79444 -1.61581,2.83363 -0.85532,3.75003 1.84833,2.2271 2.80776,1.3719 2.7849,-2.48241 z m -9.65395,-0.84854 c -0.48074,-1.25278 -2.32381,-2.03263 -2.32381,-0.98325 0,0.23002 -0.26055,1.09719 -0.57899,1.92704 -0.43043,1.12166 -0.0633,1.37396 1.4308,0.98325 1.21029,-0.3165 1.79586,-1.08308 1.472,-1.92704 z M -813.42189,559.68111 c 0.68469,-0.825 1.67001,-1.5 2.1896,-1.5 0.51959,0 2.37699,-1.50689 4.12755,-3.34865 1.81196,-1.90634 5.71745,-4.29092 9.06753,-5.53635 3.23657,-1.20324 6.73514,-3.26891 7.77461,-4.59038 2.38397,-3.03072 10.6054,-6.92203 18.13635,-8.58417 7.02374,-1.55019 7.96507,-2.61331 3.11893,-3.52246 -4.26733,-0.80055 -17.03539,1.67856 -25.91457,5.03171 l -6,2.26586 3.23853,0.71915 c 1.7812,0.39554 3.54252,1.21101 3.91405,1.81217 0.41822,0.6767 0.10142,0.8727 -0.83176,0.5146 -10.90973,-4.18645 -33.70154,2.08097 -40.73513,11.20158 l -2.54181,3.29603 3.12331,-0.68599 c 8.31245,-1.82572 18.33281,0.06 18.33281,3.44995 0,1.45699 1.58624,1.18043 3,-0.52305 z"
       id="path3072"
       inkscape:connector-curvature="0" />
    <g
       id="g3825"
       style="opacity:0.5"
       transform="translate(-1230.9617,-2526.6167)">
      <path
         sodipodi:nodetypes="ccc"
         inkscape:connector-curvature="0"
         id="path3821"
         d="M 780,1082.3622 C 720,992.36217 650,952.36218 650,952.36218 c 0,0 -70,39.99999 -130,130.00002"
         style="fill:none;stroke:#000000;stroke-width:60;stroke-linecap:round;stroke-linejoin:round;stroke-miterlimit:4;stroke-opacity:1;stroke-dasharray:none" />
      <path
         sodipodi:nodetypes="cc"
         inkscape:connector-curvature="0"
         id="path3823"
         d="m 650,1202.3622 0,-230.00002"
         style="fill:#e6e6e6;stroke:#000000;stroke-width:60;stroke-linecap:round;stroke-linejoin:miter;stroke-miterlimit:4;stroke-opacity:1;stroke-dasharray:none" />
    </g>
    <g
       id="g3829"
       transform="matrix(0,1,-1,0,1021.4005,-1974.2545)">
      <path
         style="fill:none;stroke:#000000;stroke-width:60;stroke-linecap:round;stroke-linejoin:round;stroke-miterlimit:4;stroke-opacity:1;stroke-dasharray:none"
         d="M 780,1082.3622 C 720,992.36217 650,952.36218 650,952.36218 c 0,0 -70,39.99999 -130,130.00002"
         id="path3831"
         inkscape:connector-curvature="0"
         sodipodi:nodetypes="ccc" />
      <path
         style="fill:#e6e6e6;stroke:#000000;stroke-width:60;stroke-linecap:round;stroke-linejoin:miter;stroke-miterlimit:4;stroke-opacity:1;stroke-dasharray:none"
         d="m 650,1252.3622 0,-280.00002"
         id="path3833"
         inkscape:connector-curvature="0"
         sodipodi:nodetypes="cc" />
    </g>
    <g
       id="g3943"
       style="stroke:#000000"
       transform="translate(-1230.9617,-2526.6167)">
      <g
         style="stroke:#000000"
         transform="matrix(-1,0,0,-1,1050,2504.7244)"
         id="g3835">
        <path
           sodipodi:nodetypes="ccc"
           inkscape:connector-curvature="0"
           id="path3837"
           d="M 780,1082.3622 C 720,992.36217 650,952.36218 650,952.36218 c 0,0 -70,39.99999 -130,130.00002"
           style="fill:none;stroke:#000000;stroke-width:60;stroke-linecap:round;stroke-linejoin:round;stroke-miterlimit:4;stroke-opacity:1;stroke-dasharray:none" />
        <path
           sodipodi:nodetypes="cc"
           inkscape:connector-curvature="0"
           id="path3839"
           d="m 650,1202.3622 0,-230.00002"
           style="fill:#e6e6e6;stroke:#000000;stroke-width:60;stroke-linecap:round;stroke-linejoin:miter;stroke-miterlimit:4;stroke-opacity:1;stroke-dasharray:none" />
      </g>
      <path
         sodipodi:nodetypes="cc"
         inkscape:connector-curvature="0"
         id="path3851"
         d="m 260,1632.3622 280,0"
         style="fill:#e6e6e6;stroke:#000000;stroke-width:60;stroke-linecap:round;stroke-linejoin:miter;stroke-miterlimit:4;stroke-opacity:1;stroke-dasharray:none" />
    </g>
    <rect
       style="opacity:0.5;fill:none;stroke:#000000;stroke-width:60;stroke-linecap:round;stroke-linejoin:round;stroke-miterlimit:4;stroke-opacity:1;stroke-dasharray:none"
       id="rect3855"
       width="180"
       height="180.00012"
       x="-370.9617"
       y="-864.25452" />
    <g
       style="opacity:0.5"
       id="g3857"
       transform="matrix(0.70710678,0.70710678,-0.70710678,0.70710678,120.0505,-2094.5055)">
      <g
         id="g3872"
         transform="translate(-8.0488642e-6,14.754685)">
        <path
           sodipodi:nodetypes="ccc"
           inkscape:connector-curvature="0"
           id="path3859"
           d="M 780,1082.3622 C 720,992.36217 650,952.36218 650,952.36218 c 0,0 -70,39.99999 -130,130.00002"
           style="fill:none;stroke:#000000;stroke-width:60;stroke-linecap:round;stroke-linejoin:round;stroke-miterlimit:4;stroke-opacity:1;stroke-dasharray:none" />
        <path
           sodipodi:nodetypes="cc"
           inkscape:connector-curvature="0"
           id="path3861"
           d="m 650,1202.3622 0,-230.00002"
           style="fill:#e6e6e6;stroke:#000000;stroke-width:60;stroke-linecap:round;stroke-linejoin:miter;stroke-miterlimit:4;stroke-opacity:1;stroke-dasharray:none" />
      </g>
    </g>
    <g
       transform="matrix(0.70710678,0.70710678,-0.70710678,0.70710678,-282.5841,-1821.871)"
       id="g3879"
       style="opacity:0.5">
      <g
         transform="translate(-8.0488642e-6,14.754685)"
         id="g3881" />
    </g>
    <path
       style="font-size:medium;font-style:normal;font-variant:normal;font-weight:normal;font-stretch:normal;text-indent:0;text-align:start;text-decoration:none;line-height:normal;letter-spacing:normal;word-spacing:normal;text-transform:none;direction:ltr;block-progression:tb;writing-mode:lr-tb;text-anchor:start;baseline-shift:baseline;color:#000000;fill:#000000;fill-opacity:1;stroke:none;stroke-width:60;marker:none;visibility:visible;display:inline;overflow:visible;enable-background:accumulate;font-family:Sans;-inkscape-font-specification:Sans"
       d="m 79.0383,-894.2545 a 30.003,30.003 0 0 0 -30,30 l 0,180 a 30.003,30.003 0 0 0 30,30 l 180,0 a 30.003,30.003 0 0 0 30,-30 l 0,-145.0625 c -20.0006,19.994 -39.9995,39.9748 -60,59.9688 l 0,55.0937 -120,0 0,-120 54.7813,0 c 19.8064,-20.3369 40.282,-40.0416 60.4687,-60 l -145.25,0 z"
       id="rect3892"
       inkscape:connector-curvature="0" />
    <text
       xml:space="preserve"
       style="font-size:60px;font-style:normal;font-variant:normal;font-weight:bold;font-stretch:normal;line-height:125%;letter-spacing:-11.80000019px;word-spacing:0px;fill:#000000;stroke:#000000;stroke-width:1px;stroke-linecap:butt;stroke-linejoin:miter;stroke-opacity:1;font-family:Courier 10 Pitch;-inkscape-font-specification:Courier 10 Pitch Bold"
       id="text6432"
       sodipodi:linespacing="125%"
       transform="translate(-2080.9617,-2226.6167)"
       x="-2570.1427"
       y="-2466.9736"><tspan
         dx="-15.341171"
         style="font-size:60px;letter-spacing:-11.80000019px"
         id="tspan6434">meta</tspan></text>
    <text
       sodipodi:linespacing="125%"
       id="text6446"
       style="font-size:100px;font-style:normal;font-variant:normal;font-weight:bold;font-stretch:normal;line-height:125%;letter-spacing:-11.80000019px;word-spacing:0px;fill:#000000;stroke:#000000;stroke-width:1px;stroke-linecap:butt;stroke-linejoin:miter;stroke-opacity:1;font-family:Courier 10 Pitch;-inkscape-font-specification:Courier 10 Pitch Bold"
       xml:space="preserve"
       transform="translate(-2080.9617,-2226.6167)"
       x="-2762.1063"
       y="-2408.1503"><tspan
         id="tspan6450"
         style="font-size:100px;letter-spacing:-11.80000019px"
         dx="-15.341171">meta</tspan></text>
    <path
       style="fill:none;stroke:#000000;stroke-width:25.53191566;stroke-linecap:round;stroke-linejoin:round;stroke-miterlimit:4;stroke-opacity:1;stroke-dasharray:none"
       d="M -62.765957,215.12981 -126.59574,278.9596"
       id="path6940"
       inkscape:connector-curvature="0"
       sodipodi:nodetypes="cc" />
    <path
       style="fill:none;stroke:#000000;stroke-width:25.53191566;stroke-linecap:round;stroke-linejoin:round;stroke-miterlimit:4;stroke-opacity:1;stroke-dasharray:none"
       d="m -84.042553,278.9596 -42.553187,0 0,-42.5532"
       id="path6942"
       inkscape:connector-curvature="0"
       sodipodi:nodetypes="ccc" />
  </g>
</svg>
