<?xml version="1.0" encoding="UTF-8" standalone="no"?>
<!-- Created with Inkscape (http://www.inkscape.org/) -->

<svg
   xmlns:dc="http://purl.org/dc/elements/1.1/"
   xmlns:cc="http://creativecommons.org/ns#"
   xmlns:rdf="http://www.w3.org/1999/02/22-rdf-syntax-ns#"
   xmlns:svg="http://www.w3.org/2000/svg"
   xmlns="http://www.w3.org/2000/svg"
   xmlns:sodipodi="http://sodipodi.sourceforge.net/DTD/sodipodi-0.dtd"
   xmlns:inkscape="http://www.inkscape.org/namespaces/inkscape"
   id="svg3004"
   version="1.1"
   inkscape:version="0.48.1 r9760"
   width="95.4375"
   height="78.825"
   xml:space="preserve"
   sodipodi:docname="Insig-cl(1).eps"><metadata
     id="metadata3010"><rdf:RDF><cc:Work
         rdf:about=""><dc:format>image/svg+xml</dc:format><dc:type
           rdf:resource="http://purl.org/dc/dcmitype/StillImage" /><dc:title></dc:title></cc:Work></rdf:RDF></metadata><defs
     id="defs3008" /><sodipodi:namedview
     pagecolor="#ffffff"
     bordercolor="#666666"
     borderopacity="1"
     objecttolerance="10"
     gridtolerance="10"
     guidetolerance="10"
     inkscape:pageopacity="0"
     inkscape:pageshadow="2"
     inkscape:window-width="829"
     inkscape:window-height="725"
     id="namedview3006"
     showgrid="false"
     inkscape:zoom="3.6282907"
     inkscape:cx="47.71875"
     inkscape:cy="39.412498"
     inkscape:window-x="0"
     inkscape:window-y="0"
     inkscape:window-maximized="0"
     inkscape:current-layer="g3014" /><g
     id="g3012"
     inkscape:groupmode="layer"
     inkscape:label="ink_ext_XXXXXX"
     transform="matrix(1.25,0,0,-1.25,0,78.825)"><g
       id="g3014"
       transform="scale(0.1,0.1)"><path
         d="M 669.488,315.301 C 669.488,142.348 527.008,-0.00390625 353.879,-0.00390625 180.754,-0.00390625 38.2617,142.348 38.2617,315.301 c 0,172.957 139.1523,315.301 315.6173,315.301 169.789,0 315.609,-142.344 315.609,-315.301"
         style="fill:#1a5dad;fill-opacity:1;fill-rule:nonzero;stroke:none"
         id="path3016"
         inkscape:export-filename="/Users/trebor/Downloads/path3126.png"
         inkscape:export-xdpi="188.61"
         inkscape:export-ydpi="188.61" /><path
         d="m 425.062,149.352 c 134.836,-55.4692 111.438,84.703 39.563,192.027 -40.734,60.816 -93.852,111.469 -127.359,135.918 -111.118,81.094 -179.707,31.91 -101.25,-128.02 25.367,-51.707 57.949,-86.605 83.398,-119.5 19.434,-25.113 57.293,-37.683 43.957,-49.605 -15.031,-13.438 -51.418,45.832 -51.418,45.832 C 285.059,258.406 259.449,293 233.055,340.445 172.738,448.848 181.438,559.48 290.598,511.281 383.25,470.363 471.734,355.602 507.32,274.102 523.758,236.473 568.559,87.5742 425.855,147.77"
         style="fill:#ffffff;fill-opacity:1;fill-rule:nonzero;stroke:none"
         id="path3018"
         inkscape:export-filename="/Users/trebor/Downloads/path3126.png"
         inkscape:export-xdpi="188.61"
         inkscape:export-ydpi="188.61" /><path
         d="m 5.75781,221.832 c 59.32029,39.512 115.56219,65.02 211.27319,96.633 134.485,44.414 235.719,74.281 359.907,136.707 55.585,27.941 152.05,90.594 186.535,145.062 C 753.148,579.152 721.168,538.129 706.676,519.973 538.18,308.98 179.246,320.934 8.12109,219.625"
         style="fill:#ee293d;fill-opacity:1;fill-rule:nonzero;stroke:none"
         id="path3020"
         inkscape:export-filename="/Users/trebor/Downloads/path3126.png"
         inkscape:export-xdpi="188.61"
         inkscape:export-ydpi="188.61" /><path
         d="m 91.8125,376.043 c 54.2925,-0.426 48.9645,0.109 49.6015,-0.527 0.945,0 43.344,-73.02 43.344,-73.649 0,-0.312 -0.313,25.953 -0.313,58.793 0,3.797 -10.441,14.856 -10.129,14.856 15.5,0 35.754,-0.313 35.754,-0.313 -7.593,-8.855 -9.105,-8.125 -9.172,-13.594 -0.214,-17.593 -0.414,-50.097 0,-86.605 0.059,-5.477 4.114,-7.59 10.758,-17.07 l -49.679,0 c -16.137,26.863 -45.707,77.269 -45.559,77.121 0.227,-0.231 -0.637,-31.61 0.312,-56.895 0.317,-8.351 4.118,-11.062 11.079,-18.652 0,0 8.011,0.215 -38.9223,-0.313 14.2383,7.59 12.3473,17.067 12.3403,17.383 -0.512,34.934 -0.102,64.801 -0.102,84.082 0,3.16 -0.215,2.848 -10.0195,14.856"
         style="fill:#ffffff;fill-opacity:1;fill-rule:nonzero;stroke:none"
         id="path3022"
         inkscape:export-filename="/Users/trebor/Downloads/path3126.png"
         inkscape:export-xdpi="188.61"
         inkscape:export-ydpi="188.61" /><path
         d="m 261.574,322.102 c 4.555,15.824 8.449,29.968 10.297,39.191 0.313,1.582 -3.48,7.269 -9.492,12.957 l -0.426,0.883 c 28.988,-0.09 59.274,-0.246 59.274,-0.246 7.91,-19.285 25.949,-73.332 39.55,-106.528 3.598,-8.773 9.809,-10.425 9.809,-10.425 -24.676,0.308 -70.477,0.101 -70.238,0.308 12.34,11.07 10.757,11.07 5.375,27.184 l -38.598,0 c -7.91,-18.328 2.465,-26.934 3.793,-26.864 -8.781,-0.457 -38.598,0 -38.598,0 16.137,11.379 15.188,14.852 15.188,14.852 4.43,15.774 9.566,33.047 14.066,48.688 l 15.832,-0.004 c -3.402,-10.91 -6.804,-21.813 -6.804,-21.813 l 30.699,0 -17.09,43.621 c 0,0 -3.399,-10.906 -6.805,-21.808 l -15.832,0.004"
         style="fill:#ffffff;fill-opacity:1;fill-rule:nonzero;stroke:none"
         id="path3024"
         inkscape:export-filename="/Users/trebor/Downloads/path3126.png"
         inkscape:export-xdpi="188.61"
         inkscape:export-ydpi="188.61" /><path
         d="m 526.723,320.52 c 4.55,15.82 8.449,29.968 10.293,39.195 0.316,1.578 -3.485,7.265 -9.493,12.957 l -0.425,0.879 c 28.992,-0.09 59.285,-0.246 59.285,-0.246 7.898,-19.285 25.937,-73.336 39.543,-106.52 3.59,-8.781 9.801,-10.437 9.801,-10.437 -24.668,0.32 -70.465,0.105 -70.231,0.32 12.344,11.059 10.762,11.059 5.379,27.18 l -38.605,0 c -7.911,-18.332 2.46,-26.93 3.789,-26.868 -8.778,-0.449 -38.59,0 -38.59,0 16.129,11.379 15.183,14.86 15.183,14.86 4.434,15.769 9.571,33.039 14.071,48.68 l 15.832,0 c -3.41,-10.911 -6.797,-21.817 -6.797,-21.817 l 30.683,0 -17.089,43.621 c 0,0 -3.387,-10.902 -6.797,-21.804 l -15.832,0"
         style="fill:#ffffff;fill-opacity:1;fill-rule:nonzero;stroke:none"
         id="path3026"
         inkscape:export-filename="/Users/trebor/Downloads/path3126.png"
         inkscape:export-xdpi="188.61"
         inkscape:export-ydpi="188.61" /><path
         d="m 476.805,346.434 c -0.637,22.445 0,29.714 0,29.714 -9.817,-7.906 -4.867,-6.898 -29.426,-2.843 -70.781,11.675 -76.172,-54.403 -37.656,-69.227 32.336,-12.445 43.789,-14.883 38.918,-26.547 -1.582,-3.801 -31.008,-17.707 -61.379,10.426 l 0.625,-39.195 c 3.797,3.91 14.25,11.062 14.25,11.062 0.308,0 32.918,-14.367 62.324,0.637 45.254,23.07 22.664,60.414 -25.625,75.23 -40.188,12.325 -2.219,41.094 37.644,10.43"
         style="fill:#ffffff;fill-opacity:1;fill-rule:nonzero;stroke:none"
         id="path3028"
         inkscape:export-filename="/Users/trebor/Downloads/path3126.png"
         inkscape:export-xdpi="188.61"
         inkscape:export-ydpi="188.61" /><path
         d="m 358.324,601.961 c 0,-1.41 -1.156,-2.574 -2.57,-2.574 -1.406,0 -2.57,1.164 -2.57,2.574 0,1.406 1.164,2.566 2.57,2.566 1.414,0 2.57,-1.16 2.57,-2.566"
         style="fill:#ffffff;fill-opacity:1;fill-rule:nonzero;stroke:none"
         id="path3030"
         inkscape:export-filename="/Users/trebor/Downloads/path3126.png"
         inkscape:export-xdpi="188.61"
         inkscape:export-ydpi="188.61" /><path
         d="m 376.129,563.039 c 0,-1.734 -1.438,-3.16 -3.164,-3.16 -1.738,0 -3.168,1.426 -3.168,3.16 0,1.734 1.43,3.16 3.168,3.16 1.726,0 3.164,-1.426 3.164,-3.16"
         style="fill:#ffffff;fill-opacity:1;fill-rule:nonzero;stroke:none"
         id="path3032"
         inkscape:export-filename="/Users/trebor/Downloads/path3126.png"
         inkscape:export-xdpi="188.61"
         inkscape:export-ydpi="188.61" /><path
         d="m 422.398,499.422 c 0,-1.731 -1.425,-3.16 -3.164,-3.16 -1.726,0 -3.164,1.429 -3.164,3.16 0,1.738 1.328,3.164 3.067,3.164 1.738,0 3.261,-1.426 3.261,-3.164"
         style="fill:#ffffff;fill-opacity:1;fill-rule:nonzero;stroke:none"
         id="path3034"
         inkscape:export-filename="/Users/trebor/Downloads/path3126.png"
         inkscape:export-xdpi="188.61"
         inkscape:export-ydpi="188.61" /><path
         d="m 348.043,541.109 c 0,-1.41 -1.156,-2.566 -2.57,-2.566 -1.411,0 -2.571,1.156 -2.571,2.566 0,1.407 1.16,2.571 2.571,2.571 1.414,0 2.57,-1.164 2.57,-2.571"
         style="fill:#ffffff;fill-opacity:1;fill-rule:nonzero;stroke:none"
         id="path3036"
         inkscape:export-filename="/Users/trebor/Downloads/path3126.png"
         inkscape:export-xdpi="188.61"
         inkscape:export-ydpi="188.61" /><path
         d="m 375.727,526.492 c 0,-1.406 -1.161,-2.57 -2.567,-2.57 -1.41,0 -2.574,1.164 -2.574,2.57 0,1.406 1.164,2.563 2.574,2.563 1.406,0 2.567,-1.157 2.567,-2.563"
         style="fill:#ffffff;fill-opacity:1;fill-rule:nonzero;stroke:none"
         id="path3038"
         inkscape:export-filename="/Users/trebor/Downloads/path3126.png"
         inkscape:export-xdpi="188.61"
         inkscape:export-ydpi="188.61" /><path
         d="m 339.738,567.387 c 0,-1.735 -1.429,-3.16 -3.164,-3.16 -1.738,0 -3.164,1.425 -3.164,3.16 0,1.73 1.426,3.164 3.164,3.164 1.735,0 3.164,-1.434 3.164,-3.164"
         style="fill:#ffffff;fill-opacity:1;fill-rule:nonzero;stroke:none"
         id="path3040"
         inkscape:export-filename="/Users/trebor/Downloads/path3126.png"
         inkscape:export-xdpi="188.61"
         inkscape:export-ydpi="188.61" /><path
         d="m 297.816,541.902 c 0,-1.414 -1.16,-2.574 -2.57,-2.574 -1.41,0 -2.574,1.16 -2.574,2.574 0,1.407 1.164,2.567 2.574,2.567 1.41,0 2.57,-1.16 2.57,-2.567"
         style="fill:#ffffff;fill-opacity:1;fill-rule:nonzero;stroke:none"
         id="path3042"
         inkscape:export-filename="/Users/trebor/Downloads/path3126.png"
         inkscape:export-xdpi="188.61"
         inkscape:export-ydpi="188.61" /><path
         d="m 305.332,536.766 c 0,-1.414 -1.16,-2.575 -2.57,-2.575 -1.414,0 -2.574,1.161 -2.574,2.575 0,1.406 1.16,2.562 2.574,2.562 1.41,0 2.57,-1.156 2.57,-2.562"
         style="fill:#ffffff;fill-opacity:1;fill-rule:nonzero;stroke:none"
         id="path3044"
         inkscape:export-filename="/Users/trebor/Downloads/path3126.png"
         inkscape:export-xdpi="188.61"
         inkscape:export-ydpi="188.61" /><path
         d="m 312.844,531.629 c 0,-1.41 -1.16,-2.574 -2.571,-2.574 -1.41,0 -2.574,1.164 -2.574,2.574 0,1.406 1.164,2.562 2.574,2.562 1.411,0 2.571,-1.156 2.571,-2.562"
         style="fill:#ffffff;fill-opacity:1;fill-rule:nonzero;stroke:none"
         id="path3046"
         inkscape:export-filename="/Users/trebor/Downloads/path3126.png"
         inkscape:export-xdpi="188.61"
         inkscape:export-ydpi="188.61" /><path
         d="m 301.379,521.75 c 0,-1.41 -1.168,-2.566 -2.574,-2.566 -1.41,0 -2.575,1.156 -2.575,2.566 0,1.406 1.165,2.566 2.575,2.566 1.406,0 2.574,-1.16 2.574,-2.566"
         style="fill:#ffffff;fill-opacity:1;fill-rule:nonzero;stroke:none"
         id="path3048"
         inkscape:export-filename="/Users/trebor/Downloads/path3126.png"
         inkscape:export-xdpi="188.61"
         inkscape:export-ydpi="188.61" /><path
         d="m 241.656,479.863 c 0,-1.41 -1.16,-2.566 -2.574,-2.566 -1.41,0 -2.57,1.156 -2.57,2.566 0,1.414 1.16,2.571 2.57,2.571 1.414,0 2.574,-1.157 2.574,-2.571"
         style="fill:#ffffff;fill-opacity:1;fill-rule:nonzero;stroke:none"
         id="path3050"
         inkscape:export-filename="/Users/trebor/Downloads/path3126.png"
         inkscape:export-xdpi="188.61"
         inkscape:export-ydpi="188.61" /><path
         d="m 252.73,466.434 c 0,-1.407 -1.164,-2.571 -2.574,-2.571 -1.41,0 -2.57,1.164 -2.57,2.571 0,1.41 1.16,2.566 2.57,2.566 1.41,0 2.574,-1.156 2.574,-2.566"
         style="fill:#ffffff;fill-opacity:1;fill-rule:nonzero;stroke:none"
         id="path3052"
         inkscape:export-filename="/Users/trebor/Downloads/path3126.png"
         inkscape:export-xdpi="188.61"
         inkscape:export-ydpi="188.61" /><path
         d="m 243.926,249.516 c 0,-1.414 -1.16,-2.571 -2.567,-2.571 -1.414,0 -2.574,1.157 -2.574,2.571 0,1.406 1.16,2.566 2.574,2.566 1.407,0 2.567,-1.16 2.567,-2.566"
         style="fill:#ffffff;fill-opacity:1;fill-rule:nonzero;stroke:none"
         id="path3054"
         inkscape:export-filename="/Users/trebor/Downloads/path3126.png"
         inkscape:export-xdpi="188.61"
         inkscape:export-ydpi="188.61" /><path
         d="m 245.508,189.656 c 0,-1.738 -1.43,-3.16 -3.164,-3.16 -1.735,0 -3.164,1.422 -3.164,3.16 0,1.735 1.429,3.156 3.164,3.156 1.734,0 3.164,-1.421 3.164,-3.156"
         style="fill:#ffffff;fill-opacity:1;fill-rule:nonzero;stroke:none"
         id="path3056"
         inkscape:export-filename="/Users/trebor/Downloads/path3126.png"
         inkscape:export-xdpi="188.61"
         inkscape:export-ydpi="188.61" /><path
         d="m 211.496,159.031 c 0,-1.406 -1.164,-2.57 -2.57,-2.57 -1.41,0 -2.574,1.164 -2.574,2.57 0,1.41 1.164,2.567 2.574,2.567 1.406,0 2.57,-1.157 2.57,-2.567"
         style="fill:#ffffff;fill-opacity:1;fill-rule:nonzero;stroke:none"
         id="path3058"
         inkscape:export-filename="/Users/trebor/Downloads/path3126.png"
         inkscape:export-xdpi="188.61"
         inkscape:export-ydpi="188.61" /><path
         d="m 170.762,146.586 c 0,-1.734 -1.434,-3.16 -3.168,-3.16 -1.735,0 -3.164,1.426 -3.164,3.16 0,1.734 1.429,3.164 3.164,3.164 1.734,0 3.168,-1.43 3.168,-3.164"
         style="fill:#ffffff;fill-opacity:1;fill-rule:nonzero;stroke:none"
         id="path3060"
         inkscape:export-filename="/Users/trebor/Downloads/path3126.png"
         inkscape:export-xdpi="188.61"
         inkscape:export-ydpi="188.61" /><path
         d="m 162.453,174.238 c 0,-1.726 -1.433,-3.156 -3.164,-3.156 -1.734,0 -3.164,1.43 -3.164,3.156 0,1.739 1.43,3.164 3.164,3.164 1.731,0 3.164,-1.425 3.164,-3.164"
         style="fill:#ffffff;fill-opacity:1;fill-rule:nonzero;stroke:none"
         id="path3062"
         inkscape:export-filename="/Users/trebor/Downloads/path3126.png"
         inkscape:export-xdpi="188.61"
         inkscape:export-ydpi="188.61" /><path
         d="m 157.711,156.664 c 0,-1.414 -1.16,-2.57 -2.574,-2.57 -1.41,0 -2.575,1.156 -2.575,2.57 0,1.402 1.165,2.566 2.575,2.566 1.414,0 2.574,-1.164 2.574,-2.566"
         style="fill:#ffffff;fill-opacity:1;fill-rule:nonzero;stroke:none"
         id="path3064"
         inkscape:export-filename="/Users/trebor/Downloads/path3126.png"
         inkscape:export-xdpi="188.61"
         inkscape:export-ydpi="188.61" /><path
         d="m 127.254,171.281 c 0,-1.406 -1.164,-2.566 -2.57,-2.566 -1.411,0 -2.575,1.16 -2.575,2.566 0,1.407 1.164,2.567 2.575,2.567 1.406,0 2.57,-1.16 2.57,-2.567"
         style="fill:#ffffff;fill-opacity:1;fill-rule:nonzero;stroke:none"
         id="path3066"
         inkscape:export-filename="/Users/trebor/Downloads/path3126.png"
         inkscape:export-xdpi="188.61"
         inkscape:export-ydpi="188.61" /><path
         d="m 233.645,121.891 c 0,-1.411 -1.067,-2.567 -2.473,-2.567 -1.41,0 -2.668,1.156 -2.668,2.567 0,1.406 1.16,2.57 2.566,2.57 1.414,0 2.575,-1.164 2.575,-2.57"
         style="fill:#ffffff;fill-opacity:1;fill-rule:nonzero;stroke:none"
         id="path3068"
         inkscape:export-filename="/Users/trebor/Downloads/path3126.png"
         inkscape:export-xdpi="188.61"
         inkscape:export-ydpi="188.61" /><path
         d="m 265.68,145.402 c 0,-1.738 -1.328,-3.164 -3.067,-3.164 -1.734,0 -3.261,1.426 -3.261,3.164 0,1.731 1.429,3.16 3.164,3.16 1.738,0 3.164,-1.429 3.164,-3.16"
         style="fill:#ffffff;fill-opacity:1;fill-rule:nonzero;stroke:none"
         id="path3070"
         inkscape:export-filename="/Users/trebor/Downloads/path3126.png"
         inkscape:export-xdpi="188.61"
         inkscape:export-ydpi="188.61" /><path
         d="m 269.344,115.18 c 0,-1.414 -1.266,-2.575 -2.672,-2.575 -1.41,0 -2.574,1.161 -2.574,2.575 0,1.406 1.164,2.562 2.574,2.562 1.406,0 2.672,-1.156 2.672,-2.562"
         style="fill:#ffffff;fill-opacity:1;fill-rule:nonzero;stroke:none"
         id="path3072"
         inkscape:export-filename="/Users/trebor/Downloads/path3126.png"
         inkscape:export-xdpi="188.61"
         inkscape:export-ydpi="188.61" /><path
         d="m 401.043,144.016 c 0,-1.407 -1.164,-2.571 -2.57,-2.571 -1.414,0 -2.578,1.164 -2.578,2.571 0,1.41 1.164,2.57 2.578,2.57 1.406,0 2.57,-1.16 2.57,-2.57"
         style="fill:#ffffff;fill-opacity:1;fill-rule:nonzero;stroke:none"
         id="path3074"
         inkscape:export-filename="/Users/trebor/Downloads/path3126.png"
         inkscape:export-xdpi="188.61"
         inkscape:export-ydpi="188.61" /><path
         d="m 339.738,122.289 c 0,-1.414 -1.156,-2.57 -2.574,-2.57 -1.406,0 -2.566,1.156 -2.566,2.57 0,1.402 1.16,2.566 2.566,2.566 1.418,0 2.574,-1.164 2.574,-2.566"
         style="fill:#ffffff;fill-opacity:1;fill-rule:nonzero;stroke:none"
         id="path3076"
         inkscape:export-filename="/Users/trebor/Downloads/path3126.png"
         inkscape:export-xdpi="188.61"
         inkscape:export-ydpi="188.61" /><path
         d="m 504.664,91.0703 c 0,-1.4062 -1.16,-2.5664 -2.566,-2.5664 -1.418,0 -2.582,1.1602 -2.582,2.5664 0,1.4102 1.164,2.5703 2.582,2.5703 1.406,0 2.566,-1.1601 2.566,-2.5703"
         style="fill:#ffffff;fill-opacity:1;fill-rule:nonzero;stroke:none"
         id="path3078"
         inkscape:export-filename="/Users/trebor/Downloads/path3126.png"
         inkscape:export-xdpi="188.61"
         inkscape:export-ydpi="188.61" /><path
         d="m 518.109,212.57 c 0,-1.734 -1.425,-3.164 -3.164,-3.164 -1.734,0 -3.164,1.43 -3.164,3.164 0,1.735 1.43,3.164 3.164,3.164 1.739,0 3.164,-1.429 3.164,-3.164"
         style="fill:#ffffff;fill-opacity:1;fill-rule:nonzero;stroke:none"
         id="path3080"
         inkscape:export-filename="/Users/trebor/Downloads/path3126.png"
         inkscape:export-xdpi="188.61"
         inkscape:export-ydpi="188.61" /><path
         d="m 492.801,195.383 c 0,-1.406 -1.164,-2.571 -2.578,-2.571 -1.411,0 -2.571,1.165 -2.571,2.571 0,1.41 1.16,2.566 2.571,2.566 1.414,0 2.578,-1.156 2.578,-2.566"
         style="fill:#ffffff;fill-opacity:1;fill-rule:nonzero;stroke:none"
         id="path3082"
         inkscape:export-filename="/Users/trebor/Downloads/path3126.png"
         inkscape:export-xdpi="188.61"
         inkscape:export-ydpi="188.61" /><path
         d="m 517.723,190.445 c 0,-1.73 -1.426,-3.164 -3.164,-3.164 -1.743,0 -3.168,1.434 -3.168,3.164 0,1.731 1.425,3.16 3.168,3.16 1.738,0 3.164,-1.429 3.164,-3.16"
         style="fill:#ffffff;fill-opacity:1;fill-rule:nonzero;stroke:none"
         id="path3084"
         inkscape:export-filename="/Users/trebor/Downloads/path3126.png"
         inkscape:export-xdpi="188.61"
         inkscape:export-ydpi="188.61" /><path
         d="m 492.801,159.82 c 0,-1.406 -1.164,-2.566 -2.578,-2.566 -1.411,0 -2.571,1.16 -2.571,2.566 0,1.41 1.16,2.571 2.571,2.571 1.414,0 2.578,-1.161 2.578,-2.571"
         style="fill:#ffffff;fill-opacity:1;fill-rule:nonzero;stroke:none"
         id="path3086"
         inkscape:export-filename="/Users/trebor/Downloads/path3126.png"
         inkscape:export-xdpi="188.61"
         inkscape:export-ydpi="188.61" /><path
         d="m 557.262,229.758 c 0,-1.41 -1.164,-2.57 -2.571,-2.57 -1.402,0 -2.566,1.16 -2.566,2.57 0,1.41 1.164,2.566 2.566,2.566 1.407,0 2.571,-1.156 2.571,-2.566"
         style="fill:#ffffff;fill-opacity:1;fill-rule:nonzero;stroke:none"
         id="path3088"
         inkscape:export-filename="/Users/trebor/Downloads/path3126.png"
         inkscape:export-xdpi="188.61"
         inkscape:export-ydpi="188.61" /><path
         d="m 563.492,214.152 c 0,-1.738 -1.316,-3.164 -3.058,-3.164 -1.739,0 -3.258,1.426 -3.258,3.164 0,1.735 1.422,3.16 3.152,3.16 1.738,0 3.164,-1.425 3.164,-3.16"
         style="fill:#ffffff;fill-opacity:1;fill-rule:nonzero;stroke:none"
         id="path3090"
         inkscape:export-filename="/Users/trebor/Downloads/path3126.png"
         inkscape:export-xdpi="188.61"
         inkscape:export-ydpi="188.61" /><path
         d="m 607.887,195.578 c 0,-1.734 -1.414,-3.16 -3.164,-3.16 -1.739,0 -3.164,1.426 -3.164,3.16 0,1.734 1.425,3.164 3.164,3.164 1.75,0 3.164,-1.43 3.164,-3.164"
         style="fill:#ffffff;fill-opacity:1;fill-rule:nonzero;stroke:none"
         id="path3092"
         inkscape:export-filename="/Users/trebor/Downloads/path3126.png"
         inkscape:export-xdpi="188.61"
         inkscape:export-ydpi="188.61" /><path
         d="m 562.809,162.586 c 0,-1.406 -1.172,-2.566 -2.579,-2.566 -1.406,0 -2.566,1.16 -2.566,2.566 0,1.414 1.16,2.57 2.566,2.57 1.407,0 2.579,-1.156 2.579,-2.57"
         style="fill:#ffffff;fill-opacity:1;fill-rule:nonzero;stroke:none"
         id="path3094"
         inkscape:export-filename="/Users/trebor/Downloads/path3126.png"
         inkscape:export-xdpi="188.61"
         inkscape:export-ydpi="188.61" /><path
         d="m 591.273,189.457 c 0,-1.414 -1.16,-2.57 -2.566,-2.57 -1.406,0 -2.566,1.156 -2.566,2.57 0,1.41 1.16,2.566 2.566,2.566 1.406,0 2.566,-1.156 2.566,-2.566"
         style="fill:#ffffff;fill-opacity:1;fill-rule:nonzero;stroke:none"
         id="path3096"
         inkscape:export-filename="/Users/trebor/Downloads/path3126.png"
         inkscape:export-xdpi="188.61"
         inkscape:export-ydpi="188.61" /><path
         d="m 586.043,147.973 c 0,-1.414 -1.164,-2.571 -2.57,-2.571 -1.414,0 -2.578,1.157 -2.578,2.571 0,1.406 1.164,2.566 2.578,2.566 1.406,0 2.57,-1.16 2.57,-2.566"
         style="fill:#ffffff;fill-opacity:1;fill-rule:nonzero;stroke:none"
         id="path3098"
         inkscape:export-filename="/Users/trebor/Downloads/path3126.png"
         inkscape:export-xdpi="188.61"
         inkscape:export-ydpi="188.61" /><path
         d="m 598.102,216.918 c 0,-2.168 -1.79,-3.953 -3.957,-3.953 -2.168,0 -3.954,1.785 -3.954,3.953 0,2.168 1.786,3.949 3.954,3.949 2.167,0 3.957,-1.781 3.957,-3.949"
         style="fill:#ffffff;fill-opacity:1;fill-rule:nonzero;stroke:none"
         id="path3100"
         inkscape:export-filename="/Users/trebor/Downloads/path3126.png"
         inkscape:export-xdpi="188.61"
         inkscape:export-ydpi="188.61" /><path
         d="m 594.145,228.969 -1.18,-10.867 -10.781,-1.184 10.871,-1.184 1.191,-11.265 1.188,11.265 10.675,1.383 -10.769,0.985 -1.195,10.867"
         style="fill:#ffffff;fill-opacity:1;fill-rule:nonzero;stroke:none"
         id="path3102"
         inkscape:export-filename="/Users/trebor/Downloads/path3126.png"
         inkscape:export-xdpi="188.61"
         inkscape:export-ydpi="188.61" /><path
         d="m 570.418,148.168 c 0,-2.168 -1.789,-3.953 -3.957,-3.953 -2.168,0 -3.953,1.785 -3.953,3.953 0,2.168 1.785,3.949 3.953,3.949 2.168,0 3.957,-1.781 3.957,-3.949"
         style="fill:#ffffff;fill-opacity:1;fill-rule:nonzero;stroke:none"
         id="path3104"
         inkscape:export-filename="/Users/trebor/Downloads/path3126.png"
         inkscape:export-xdpi="188.61"
         inkscape:export-ydpi="188.61" /><path
         d="m 566.461,160.219 -1.191,-10.867 -10.77,-1.184 10.867,-1.188 1.192,-11.261 1.191,11.261 10.676,1.379 -10.785,0.993 -1.18,10.867"
         style="fill:#ffffff;fill-opacity:1;fill-rule:nonzero;stroke:none"
         id="path3106"
         inkscape:export-filename="/Users/trebor/Downloads/path3126.png"
         inkscape:export-xdpi="188.61"
         inkscape:export-ydpi="188.61" /><path
         d="m 275.371,474.531 c 0,-2.168 -1.785,-3.949 -3.953,-3.949 -2.172,0 -3.957,1.781 -3.957,3.949 0,2.168 1.785,3.953 3.957,3.953 2.168,0 3.953,-1.785 3.953,-3.953"
         style="fill:#ffffff;fill-opacity:1;fill-rule:nonzero;stroke:none"
         id="path3108"
         inkscape:export-filename="/Users/trebor/Downloads/path3126.png"
         inkscape:export-xdpi="188.61"
         inkscape:export-ydpi="188.61" /><path
         d="m 271.418,486.586 -1.188,-10.867 -10.781,-1.188 10.879,-1.179 1.188,-11.266 1.183,11.266 10.68,1.375 -10.781,0.992 -1.18,10.867"
         style="fill:#ffffff;fill-opacity:1;fill-rule:nonzero;stroke:none"
         id="path3110"
         inkscape:export-filename="/Users/trebor/Downloads/path3126.png"
         inkscape:export-xdpi="188.61"
         inkscape:export-ydpi="188.61" /><path
         d="m 422.496,570.148 c 0,-2.168 -1.785,-3.949 -3.953,-3.949 -2.168,0 -3.945,1.781 -3.945,3.949 0,2.168 1.777,3.954 3.945,3.954 2.168,0 3.953,-1.786 3.953,-3.954"
         style="fill:#ffffff;fill-opacity:1;fill-rule:nonzero;stroke:none"
         id="path3112"
         inkscape:export-filename="/Users/trebor/Downloads/path3126.png"
         inkscape:export-xdpi="188.61"
         inkscape:export-ydpi="188.61" /><path
         d="m 418.543,582.203 -1.184,-10.867 -10.781,-1.188 10.879,-1.187 1.184,-11.258 1.191,11.258 10.672,1.387 -10.781,0.988 -1.18,10.867"
         style="fill:#ffffff;fill-opacity:1;fill-rule:nonzero;stroke:none"
         id="path3114"
         inkscape:export-filename="/Users/trebor/Downloads/path3126.png"
         inkscape:export-xdpi="188.61"
         inkscape:export-ydpi="188.61" /><path
         d="m 243.633,84.9492 c 0,-2.168 -1.785,-3.9492 -3.953,-3.9492 -2.172,0 -3.961,1.7812 -3.961,3.9492 0,2.1602 1.789,3.9492 3.961,3.9492 2.168,0 3.953,-1.789 3.953,-3.9492"
         style="fill:#ffffff;fill-opacity:1;fill-rule:nonzero;stroke:none"
         id="path3116"
         inkscape:export-filename="/Users/trebor/Downloads/path3126.png"
         inkscape:export-xdpi="188.61"
         inkscape:export-ydpi="188.61" /><path
         d="m 239.777,97 -1.187,-10.8633 -10.778,-1.1875 10.876,-1.1875 1.187,-11.2578 1.184,11.2578 10.679,1.3828 -10.773,0.9922 L 239.777,97"
         style="fill:#ffffff;fill-opacity:1;fill-rule:nonzero;stroke:none"
         id="path3118"
         inkscape:export-filename="/Users/trebor/Downloads/path3126.png"
         inkscape:export-xdpi="188.61"
         inkscape:export-ydpi="188.61" /><path
         d="M 763.473,600.234 C 715.367,457.547 522.684,347.363 360.48,242.164 262.629,178.699 165.48,105.633 98.5977,43.4688 80.9688,27.0781 102.191,49.5977 95.4336,42.6797 188.773,150.148 296.133,214.152 355.461,254.449 c 100.348,68.168 157.406,85.348 330.512,244.805"
         style="fill:#ee293d;fill-opacity:1;fill-rule:nonzero;stroke:none"
         id="path3120"
         inkscape:export-filename="/Users/trebor/Downloads/path3126.png"
         inkscape:export-xdpi="188.61"
         inkscape:export-ydpi="188.61" /><path
         d="M 45.875,246.723 C 28.6055,238.266 13.1328,229.914 0,221.766 l 7.98828,-2.907 c 11.48052,7.071 25.26562,14.45 39.78512,20.95"
         style="fill:#ee293d;fill-opacity:1;fill-rule:nonzero;stroke:none"
         id="path3122"
         inkscape:export-filename="/Users/trebor/Downloads/path3126.png"
         inkscape:export-xdpi="188.61"
         inkscape:export-ydpi="188.61" /><path
         d="M 137.07,87.0469 C 121.281,73.2695 104.961,58.5586 88.5898,43.1367 L 87.8672,32.2422 c 14.9878,15.4414 33.3988,32.1133 54.6488,49.8047"
         style="fill:#ee293d;fill-opacity:1;fill-rule:nonzero;stroke:none"
         id="path3124"
         inkscape:export-filename="/Users/trebor/Downloads/path3126.png"
         inkscape:export-xdpi="188.61"
         inkscape:export-ydpi="188.61" /><path
         d="m 425.062,149.352 c 134.836,-55.4692 111.438,84.703 39.563,192.027 -40.734,60.816 -90.977,109.055 -127.359,135.918 -42.5,31.383 -46.668,33.984 -46.668,33.984 C 385.516,466.238 471.734,355.602 507.32,274.102 523.758,236.473 568.559,87.5742 425.855,147.77"
         style="fill:#ffffff;fill-opacity:1;fill-rule:nonzero;stroke:none"
         id="path3126"
         inkscape:export-xdpi="188.61"
         inkscape:export-ydpi="188.61" /></g></g></svg>